<svg width="26" height="26" viewBox="0 0 26 26" fill="none" xmlns="http://www.w3.org/2000/svg">
<g clip-path="url(#clip0_384_453)">
<path d="M1.62175 19.4594C2.81263 19.4594 3.96128 19.3074 5.0677 19.0033C6.17412 18.6993 7.20452 18.2601 8.15892 17.6858C9.11331 17.1115 9.98746 16.4358 10.7814 15.6588C11.5753 14.8817 12.2552 14.0076 12.8211 13.0363C13.387 12.065 13.8219 11.0304 14.126 9.9324C14.43 8.83443 14.5863 7.68578 14.5947 6.48645C14.5947 5.36314 14.4511 4.26095 14.164 3.17987C13.8768 2.09878 13.4587 1.0726 12.9098 0.101318C13.9908 0.236453 15.0255 0.494055 16.0136 0.874122C17.0018 1.25419 17.9182 1.73983 18.7628 2.33105C19.6074 2.92226 20.3718 3.60216 21.0559 4.37074C21.74 5.13933 22.3228 5.9797 22.8042 6.89186C23.2856 7.80402 23.6615 8.77108 23.9317 9.79304C24.202 10.815 24.3329 11.875 24.3245 12.9729C24.3245 14.1638 24.1724 15.3125 23.8684 16.4189C23.5643 17.5253 23.1251 18.5557 22.5508 19.5101C21.9765 20.4645 21.3008 21.3386 20.5238 22.1326C19.7468 22.9265 18.8726 23.6064 17.9013 24.1723C16.93 24.7381 15.8954 25.1731 14.7974 25.4772C13.6995 25.7812 12.5508 25.9375 11.3515 25.9459C10.1859 25.9459 9.04996 25.7939 7.94354 25.4898C6.83713 25.1858 5.79827 24.7508 4.82699 24.1849C3.85571 23.6191 2.96044 22.9265 2.14118 22.1072C1.32192 21.288 0.629355 20.3716 0.0634766 19.3581C0.325301 19.3919 0.582902 19.4172 0.836281 19.4341C1.08966 19.451 1.35148 19.4594 1.62175 19.4594ZM11.3515 24.3243C12.3988 24.3243 13.4038 24.1892 14.3667 23.9189C15.3295 23.6486 16.2332 23.2685 17.0778 22.7787C17.9224 22.2888 18.6868 21.6976 19.3709 21.005C20.055 20.3125 20.6462 19.5481 21.1446 18.712C21.6429 17.8758 22.0272 16.9721 22.2974 16.0008C22.5677 15.0295 22.7028 14.0202 22.7028 12.9729C22.7028 11.8243 22.5339 10.7136 22.1961 9.64101C21.8582 8.56838 21.3853 7.57176 20.7772 6.65115C20.1691 5.73054 19.4258 4.91128 18.5474 4.19338C17.6691 3.47547 16.702 2.90115 15.6462 2.47041C16.0263 3.77953 16.2163 5.11821 16.2163 6.48645C16.2163 7.71956 16.0685 8.91044 15.7729 10.0591C15.4773 11.2077 15.055 12.2973 14.506 13.3277C13.9571 14.3581 13.2941 15.3082 12.517 16.1782C11.74 17.0481 10.8743 17.8167 9.9199 18.4839C8.9655 19.1511 7.9351 19.6959 6.82868 20.1182C5.72226 20.5405 4.5525 20.8277 3.31939 20.9797C4.40047 22.0608 5.62513 22.8885 6.99338 23.4628C8.36162 24.0371 9.81432 24.3243 11.3515 24.3243Z" fill="black"/>
</g>
<defs>
<clipPath id="clip0_384_453">
<rect width="25.9459" height="25.9459" fill="white"/>
</clipPath>
</defs>
</svg>
