<svg width="30" height="30" viewBox="0 0 30 30" fill="none" xmlns="http://www.w3.org/2000/svg">
<circle cx="15" cy="15" r="15" fill="black" fill-opacity="0.6"/>
<g clip-path="url(#clip0_64_2609)">
<path d="M21.6665 15C22.1085 15 22.5325 15.1756 22.845 15.4882C23.1576 15.8008 23.3332 16.2247 23.3332 16.6667V20C23.3332 20.4421 23.1576 20.866 22.845 21.1786C22.5325 21.4911 22.1085 21.6667 21.6665 21.6667H17.4998C17.0578 21.6667 16.6339 21.4911 16.3213 21.1786C16.0088 20.866 15.8332 20.4421 15.8332 20V16.6667C15.8332 16.2247 16.0088 15.8008 16.3213 15.4882C16.6339 15.1756 17.0578 15 17.4998 15H21.6665ZM20.8332 8.33337C21.2752 8.33337 21.6991 8.50897 22.0117 8.82153C22.3242 9.13409 22.4998 9.55801 22.4998 10V13.3334C22.4998 13.5544 22.412 13.7663 22.2558 13.9226C22.0995 14.0789 21.8875 14.1667 21.6665 14.1667C21.4455 14.1667 21.2335 14.0789 21.0772 13.9226C20.921 13.7663 20.8332 13.5544 20.8332 13.3334V10H8.33317V19.1667H14.1665C14.3875 19.1667 14.5995 19.2545 14.7558 19.4108C14.912 19.5671 14.9998 19.779 14.9998 20C14.9998 20.2211 14.912 20.433 14.7558 20.5893C14.5995 20.7456 14.3875 20.8334 14.1665 20.8334H8.33317C7.89114 20.8334 7.46722 20.6578 7.15466 20.3452C6.8421 20.0327 6.6665 19.6087 6.6665 19.1667V10C6.6665 9.55801 6.8421 9.13409 7.15466 8.82153C7.46722 8.50897 7.89114 8.33337 8.33317 8.33337H20.8332ZM21.6665 16.6667H17.4998V20H21.6665V16.6667ZM10.9057 11.3942L12.5015 12.99V12.5017C12.5015 12.2807 12.5893 12.0687 12.7456 11.9125C12.9019 11.7562 13.1138 11.6684 13.3348 11.6684C13.5559 11.6684 13.7678 11.7562 13.9241 11.9125C14.0804 12.0687 14.1682 12.2807 14.1682 12.5017V15.0017C14.1682 15.2227 14.0804 15.4347 13.9241 15.591C13.7678 15.7472 13.5559 15.835 13.3348 15.835H10.8348C10.6138 15.835 10.4019 15.7472 10.2456 15.591C10.0893 15.4347 10.0015 15.2227 10.0015 15.0017C10.0015 14.7807 10.0893 14.5687 10.2456 14.4125C10.4019 14.2562 10.6138 14.1684 10.8348 14.1684H11.3232L9.72734 12.5725C9.64775 12.4957 9.58426 12.4037 9.54059 12.302C9.49691 12.2004 9.47392 12.091 9.47296 11.9804C9.472 11.8697 9.49308 11.76 9.53499 11.6576C9.57689 11.5552 9.63876 11.4621 9.71701 11.3839C9.79525 11.3056 9.8883 11.2438 9.99071 11.2019C10.0931 11.16 10.2029 11.1389 10.3135 11.1398C10.4242 11.1408 10.5335 11.1638 10.6352 11.2075C10.7368 11.2511 10.8288 11.3146 10.9057 11.3942Z" fill="white"/>
</g>
<defs>
<clipPath id="clip0_64_2609">
<rect width="20" height="20" fill="white" transform="translate(5 5)"/>
</clipPath>
</defs>
</svg>
