<svg width="19" height="17" viewBox="0 0 19 17" fill="none" xmlns="http://www.w3.org/2000/svg">
<path d="M16.875 2.25H14.0747L12.6863 0.166875C12.6521 0.115637 12.6058 0.0736083 12.5515 0.0445036C12.4972 0.0153988 12.4366 0.000114043 12.375 0H6.375C6.3134 0.000114043 6.25279 0.0153988 6.1985 0.0445036C6.14422 0.0736083 6.09794 0.115637 6.06375 0.166875L4.67344 2.25H1.875C1.37772 2.25 0.900806 2.44754 0.549175 2.79917C0.197544 3.15081 0 3.62772 0 4.125V14.625C0 15.1223 0.197544 15.5992 0.549175 15.9508C0.900806 16.3025 1.37772 16.5 1.875 16.5H16.875C17.3723 16.5 17.8492 16.3025 18.2008 15.9508C18.5525 15.5992 18.75 15.1223 18.75 14.625V4.125C18.75 3.62772 18.5525 3.15081 18.2008 2.79917C17.8492 2.44754 17.3723 2.25 16.875 2.25ZM18 14.625C18 14.9234 17.8815 15.2095 17.6705 15.4205C17.4595 15.6315 17.1734 15.75 16.875 15.75H1.875C1.57663 15.75 1.29048 15.6315 1.0795 15.4205C0.868526 15.2095 0.75 14.9234 0.75 14.625V4.125C0.75 3.82663 0.868526 3.54048 1.0795 3.3295C1.29048 3.11853 1.57663 3 1.875 3H4.875C4.93675 3.00004 4.99756 2.98483 5.05202 2.95572C5.10649 2.92661 5.15291 2.8845 5.18719 2.83313L6.57469 0.75H12.1734L13.5628 2.83313C13.5971 2.8845 13.6435 2.92661 13.698 2.95572C13.7524 2.98483 13.8132 3.00004 13.875 3H16.875C17.1734 3 17.4595 3.11853 17.6705 3.3295C17.8815 3.54048 18 3.82663 18 4.125V14.625ZM9.375 5.25C8.63332 5.25 7.9083 5.46993 7.29161 5.88199C6.67493 6.29404 6.19428 6.87971 5.91045 7.56494C5.62662 8.25016 5.55236 9.00416 5.69705 9.73159C5.84175 10.459 6.1989 11.1272 6.72335 11.6517C7.2478 12.1761 7.91598 12.5333 8.64341 12.6779C9.37084 12.8226 10.1248 12.7484 10.8101 12.4645C11.4953 12.1807 12.081 11.7001 12.493 11.0834C12.9051 10.4667 13.125 9.74168 13.125 9C13.125 8.00544 12.7299 7.05161 12.0267 6.34835C11.3234 5.64509 10.3696 5.25 9.375 5.25ZM9.375 12C8.78166 12 8.20164 11.8241 7.70829 11.4944C7.21494 11.1648 6.83042 10.6962 6.60336 10.148C6.3763 9.59987 6.31689 8.99667 6.43264 8.41473C6.5484 7.83279 6.83412 7.29824 7.25368 6.87868C7.67324 6.45912 8.20779 6.1734 8.78973 6.05764C9.37167 5.94189 9.97487 6.0013 10.523 6.22836C11.0712 6.45542 11.5398 6.83994 11.8694 7.33329C12.1991 7.82664 12.375 8.40666 12.375 9C12.375 9.79565 12.0589 10.5587 11.4963 11.1213C10.9337 11.6839 10.1706 12 9.375 12Z" fill="black"/>
</svg>
