<svg width="269" height="233" viewBox="0 0 269 233" fill="none" xmlns="http://www.w3.org/2000/svg">
<g clip-path="url(#clip0_128_409)">
<path d="M26.5547 215.088C24.112 223.248 27.903 231.59 27.903 231.59C27.903 231.59 35.6544 226.703 38.097 218.544C40.5397 210.384 36.7487 202.042 36.7487 202.042C36.7487 202.042 28.9974 206.929 26.5547 215.088Z" fill="#F2F2F2"/>
<path d="M30.2639 215.309C32.3197 223.575 28.1402 231.729 28.1402 231.729C28.1402 231.729 20.6274 226.483 18.5716 218.217C16.5158 209.952 20.6953 201.797 20.6953 201.797C20.6953 201.797 28.208 207.044 30.2639 215.309Z" fill="#F2F2F2"/>
<path d="M152.438 223.517L153.992 219.517L139.306 211.617L137.012 217.519L152.438 223.517Z" fill="#FFB8B8"/>
<path d="M160.768 213.083C160.109 212.827 159.406 212.703 158.699 212.718C157.991 212.733 157.294 212.888 156.647 213.173C156 213.458 155.415 213.868 154.926 214.379C154.437 214.89 154.054 215.492 153.798 216.152L152.749 218.848L151.132 223.009L150.736 224.03L155.918 226.045L160.931 213.148L160.768 213.083Z" fill="#2F2E41"/>
<path d="M151.133 215.82L150.457 217.613L148.769 222.089L148.729 222.201C144.429 222.753 139.715 221.67 135.355 219.988C133.611 219.315 131.903 218.553 130.237 217.704C127.771 216.458 125.564 215.143 123.803 214.019C121.151 212.317 119.512 211.039 119.512 211.039C119.512 211.039 119.079 211.43 118.295 212.102C117.244 213 115.566 214.404 113.439 216.056C112.628 216.691 111.757 217.355 110.827 218.048C103.966 223.137 95.1621 209.558 95.1621 209.558C95.1621 209.558 97.6382 207.982 98.2851 207.676C100.368 206.69 105.261 204.365 109.483 202.299C111.658 201.232 113.652 200.233 114.991 199.522C119.732 196.998 125.626 201.774 125.626 201.774L151.133 215.82Z" fill="#2F2E41"/>
<path opacity="0.14" d="M151.133 215.82L150.457 217.613L148.769 222.089L148.729 222.201C144.429 222.753 139.715 221.67 135.355 219.988C133.611 219.315 131.903 218.553 130.237 217.704C127.771 216.458 125.564 215.143 123.803 214.019C121.151 212.317 119.512 211.039 119.512 211.039C119.512 211.039 119.079 211.43 118.295 212.102C117.244 213 115.566 214.404 113.439 216.056C112.628 216.691 111.757 217.355 110.827 218.048C103.966 223.137 95.1621 209.558 95.1621 209.558C95.1621 209.558 97.6382 207.982 98.2851 207.676C100.368 206.69 105.261 204.365 109.483 202.299C111.658 201.232 113.652 200.233 114.991 199.522C119.732 196.998 125.626 201.774 125.626 201.774L151.133 215.82Z" fill="black"/>
<path d="M64.2525 120.618C97.5602 120.618 124.562 93.6169 124.562 60.3091C124.562 27.0013 97.5602 0 64.2525 0C30.9447 0 3.94336 27.0013 3.94336 60.3091C3.94336 93.6169 30.9447 120.618 64.2525 120.618Z" fill="#FFC000"/>
<path opacity="0.2" d="M19.7222 20.0273C14.0967 33.1864 13.3336 47.9169 17.5691 61.5868C21.8047 75.2567 30.763 86.9751 42.8433 94.648C54.9235 102.321 69.3385 105.448 83.5123 103.472C97.6861 101.495 110.695 94.5423 120.215 83.8567C116.778 91.8963 111.635 99.0927 105.141 104.947C98.6476 110.802 90.9586 115.174 82.6072 117.762C74.2557 120.35 65.4414 121.092 56.775 119.935C48.1086 118.778 39.7973 115.751 32.4169 111.063C25.0366 106.375 18.7636 100.139 14.0327 92.7864C9.30178 85.4337 6.22599 77.1403 5.01845 68.4808C3.8109 59.8213 4.50047 51.0029 7.03938 42.6363C9.57829 34.2698 13.9058 26.5553 19.7222 20.0273Z" fill="black"/>
<path d="M64.4184 60.3088H64.5843L67.5667 231.295H61.2705L64.4184 60.3088Z" fill="#3F3D56"/>
<path d="M55.1345 137.855L53.7451 140.494L63.7144 145.743L65.1038 143.104L55.1345 137.855Z" fill="#3F3D56"/>
<path d="M267.75 231.976H0.35C0.257174 231.976 0.16815 231.939 0.102512 231.873C0.0368746 231.808 0 231.719 0 231.626C0 231.533 0.0368746 231.444 0.102512 231.378C0.16815 231.313 0.257174 231.276 0.35 231.276H267.75C267.843 231.276 267.932 231.313 267.997 231.378C268.063 231.444 268.1 231.533 268.1 231.626C268.1 231.719 268.063 231.808 267.997 231.873C267.932 231.939 267.843 231.976 267.75 231.976Z" fill="#3F3D56"/>
<path d="M82.5107 178.177H62.2107C61.7932 178.176 61.3928 178.01 61.0976 177.715C60.8023 177.42 60.6362 177.019 60.6357 176.602V167.852C60.6357 164.742 61.8711 161.76 64.0699 159.561C66.2688 157.362 69.2511 156.127 72.3607 156.127C75.4704 156.127 78.4527 157.362 80.6516 159.561C82.8504 161.76 84.0857 164.742 84.0857 167.852V176.602C84.0853 177.019 83.9192 177.42 83.6239 177.715C83.3286 178.01 82.9283 178.176 82.5107 178.177Z" fill="#2F2E41"/>
<path d="M101.816 189.167C101.344 189.25 100.895 189.436 100.502 189.711C100.109 189.986 99.7809 190.344 99.5411 190.76C99.3013 191.175 99.1556 191.638 99.1141 192.116C99.0727 192.594 99.1366 193.076 99.3013 193.526L93.7812 198.603L96.0484 202.71L103.743 195.431C104.482 195.104 105.075 194.518 105.41 193.783C105.745 193.048 105.799 192.216 105.562 191.443C105.324 190.671 104.812 190.013 104.121 189.594C103.431 189.174 102.611 189.023 101.816 189.167Z" fill="#FFB8B8"/>
<path d="M85.2069 212.251C84.9575 212.251 84.7078 212.24 84.4578 212.218C82.9687 212.094 81.5356 211.593 80.2929 210.764C79.0503 209.934 78.0389 208.802 77.3536 207.474L68.51 190.452C67.9305 189.337 67.8033 188.041 68.1549 186.835C68.5065 185.628 69.3097 184.603 70.3976 183.974C71.4854 183.344 72.7741 183.158 73.9955 183.454C75.217 183.751 76.2772 184.507 76.9555 185.565L85.1143 203.871L96.216 194.851L102.644 197.353L91.7884 209.338C90.9539 210.254 89.9376 210.986 88.8045 211.487C87.6713 211.989 86.4461 212.249 85.2069 212.251Z" fill="#CCCCCC"/>
<path d="M117.919 185.95L108.083 176.114C107.739 175.77 107.273 175.577 106.786 175.577C106.3 175.577 105.833 175.77 105.489 176.114L96.6409 184.962C96.2968 185.306 96.1035 185.773 96.1035 186.26C96.1035 186.746 96.2968 187.213 96.6409 187.557L105.831 196.747C106.158 197.074 106.598 197.266 107.061 197.283C107.524 197.3 107.977 197.141 108.327 196.838L117.821 188.635C118.003 188.478 118.153 188.286 118.261 188.071C118.369 187.856 118.434 187.621 118.452 187.381C118.469 187.14 118.439 186.899 118.363 186.67C118.288 186.442 118.168 186.23 118.01 186.048C117.981 186.014 117.951 185.981 117.919 185.95Z" fill="#3F3D56"/>
<path d="M116.527 187.675L106.403 177.551L98.0479 185.906L107.779 195.636L116.527 187.675Z" fill="#F2F2F2"/>
<path d="M107.121 190.621C109.391 190.621 111.232 188.781 111.232 186.51C111.232 184.24 109.391 182.399 107.121 182.399C104.85 182.399 103.01 184.24 103.01 186.51C103.01 188.781 104.85 190.621 107.121 190.621Z" fill="#FFC000"/>
<path opacity="0.1" d="M108.951 190.014C109.638 189.368 110.083 188.505 110.209 187.569C110.336 186.634 110.137 185.684 109.646 184.878C109.155 184.073 108.401 183.46 107.512 183.144C106.623 182.828 105.652 182.828 104.763 183.143C105.243 182.806 105.79 182.576 106.367 182.469C106.944 182.361 107.537 182.378 108.106 182.519C108.676 182.66 109.209 182.921 109.669 183.284C110.13 183.648 110.507 184.106 110.775 184.628C111.044 185.149 111.198 185.722 111.227 186.308C111.256 186.894 111.159 187.479 110.943 188.025C110.726 188.57 110.396 189.063 109.974 189.47C109.551 189.877 109.047 190.189 108.494 190.385C108.655 190.272 108.807 190.148 108.951 190.014Z" fill="black"/>
<path d="M105.1 185.693C104.609 186.154 104.583 187.812 105.332 188.609C106.081 189.405 107.32 189.039 107.811 188.578C108.301 188.118 107.856 187.737 107.107 186.94C106.359 186.144 105.59 185.232 105.1 185.693Z" fill="#F2F2F2"/>
<path d="M109.273 187.795C109.946 187.795 110.491 187.25 110.491 186.577C110.491 185.904 109.946 185.359 109.273 185.359C108.6 185.359 108.055 185.904 108.055 186.577C108.055 187.25 108.6 187.795 109.273 187.795Z" fill="#2F2E41"/>
<path d="M107.083 185.465C107.756 185.465 108.301 184.92 108.301 184.247C108.301 183.574 107.756 183.029 107.083 183.029C106.411 183.029 105.865 183.574 105.865 184.247C105.865 184.92 106.411 185.465 107.083 185.465Z" fill="#2F2E41"/>
<path d="M109.273 186.882C109.441 186.882 109.578 186.745 109.578 186.577C109.578 186.409 109.441 186.272 109.273 186.272C109.105 186.272 108.969 186.409 108.969 186.577C108.969 186.745 109.105 186.882 109.273 186.882Z" fill="#F2F2F2"/>
<path d="M109.404 185.979C109.488 185.979 109.556 185.911 109.556 185.827C109.556 185.743 109.488 185.675 109.404 185.675C109.32 185.675 109.252 185.743 109.252 185.827C109.252 185.911 109.32 185.979 109.404 185.979Z" fill="#F2F2F2"/>
<path d="M107.215 183.649C107.299 183.649 107.367 183.581 107.367 183.497C107.367 183.413 107.299 183.345 107.215 183.345C107.131 183.345 107.062 183.413 107.062 183.497C107.062 183.581 107.131 183.649 107.215 183.649Z" fill="#F2F2F2"/>
<path d="M107.084 184.551C107.252 184.551 107.388 184.415 107.388 184.247C107.388 184.079 107.252 183.942 107.084 183.942C106.916 183.942 106.779 184.079 106.779 184.247C106.779 184.415 106.916 184.551 107.084 184.551Z" fill="#F2F2F2"/>
<path d="M151.197 229.141L153.054 225.274L139.019 216.268L136.277 221.977L151.197 229.141Z" fill="#FFB8B8"/>
<path d="M160.304 219.379C159.666 219.073 158.975 218.895 158.269 218.856C157.562 218.817 156.855 218.917 156.188 219.152C155.521 219.386 154.906 219.75 154.38 220.222C153.853 220.694 153.424 221.265 153.118 221.903L151.865 224.51L149.933 228.535L149.461 229.522L154.473 231.93L160.461 219.456L160.304 219.379Z" fill="#2F2E41"/>
<path d="M150.486 221.367L149.674 223.103L147.648 227.436L147.599 227.545C143.269 227.765 138.653 226.323 134.435 224.311C132.748 223.506 131.103 222.615 129.507 221.64C127.145 220.209 125.045 218.728 123.375 217.472C120.862 215.571 119.326 214.171 119.326 214.171C119.326 214.171 118.864 214.528 118.031 215.137C116.914 215.953 115.133 217.223 112.886 218.707C112.028 219.278 111.109 219.873 110.128 220.492C102.897 225.039 92.6139 230.576 83.8673 231.745C68.5058 233.799 72.1214 213.3 72.1214 213.3L84.3468 206.951L89.5374 208.004L95.3159 209.173L97.3633 209.59C97.3633 209.59 97.7518 209.443 98.4203 209.187C100.573 208.365 105.63 206.422 109.998 204.686C112.249 203.79 114.314 202.947 115.703 202.341C120.624 200.189 126.133 205.404 126.133 205.404L150.486 221.367Z" fill="#2F2E41"/>
<path d="M49.7509 232.234C50.2185 232.127 50.657 231.918 51.0353 231.623C51.4136 231.328 51.7227 230.954 51.9406 230.526C52.1586 230.099 52.2802 229.629 52.2969 229.149C52.3135 228.67 52.2249 228.193 52.0371 227.751L57.2872 222.395L54.8108 218.411L47.5028 226.078C46.7819 226.443 46.2199 227.059 45.9231 227.811C45.6264 228.562 45.6155 229.396 45.8926 230.155C46.1697 230.914 46.7155 231.544 47.4267 231.928C48.1378 232.311 48.9647 232.42 49.7509 232.234Z" fill="#FFB8B8"/>
<path d="M75.235 178.568C79.7555 178.568 83.4202 174.903 83.4202 170.382C83.4202 165.862 79.7555 162.197 75.235 162.197C70.7144 162.197 67.0498 165.862 67.0498 170.382C67.0498 174.903 70.7144 178.568 75.235 178.568Z" fill="#FFB8B8"/>
<path d="M64.5869 193.103L71.7171 213.318L71.6743 213.389C70.6825 215.028 70.3584 216.351 70.737 217.213C70.8368 217.432 70.9829 217.627 71.1653 217.785C71.3477 217.942 71.562 218.058 71.7935 218.124L88.6666 206.33L88.0758 201.604L88.1087 201.551C89.7396 198.941 90.2677 196.578 89.6785 194.527C88.914 191.866 86.4846 190.657 86.4601 190.646L86.4013 190.599L77.9856 180.356L66.7359 182.355L64.5869 193.103Z" fill="#CCCCCC"/>
<path d="M53.7434 228.585L48.9668 222.706L60.4816 203.698L65.8501 187.103C66.1434 186.197 66.6276 185.363 67.2701 184.66C67.9126 183.956 68.6985 183.399 69.5747 183.024C70.451 182.65 71.3973 182.468 72.3498 182.491C73.3024 182.513 74.239 182.739 75.0967 183.155C75.9543 183.57 76.713 184.164 77.3217 184.897C77.9303 185.63 78.3748 186.485 78.625 187.404C78.8752 188.324 78.9255 189.286 78.7724 190.226C78.6193 191.167 78.2663 192.063 77.7374 192.856L67.8815 207.622L53.7434 228.585Z" fill="#CCCCCC"/>
<path d="M86.8605 168.727H74.4476L74.3203 166.945L73.6838 168.727H71.7725L71.5203 165.195L70.2589 168.727H66.5605V168.552C66.5633 166.093 67.5414 163.735 69.2801 161.997C71.0189 160.258 73.3764 159.28 75.8355 159.277H77.5855C80.0446 159.28 82.4021 160.258 84.1409 161.997C85.8797 163.735 86.8578 166.093 86.8605 168.552V168.727Z" fill="#2F2E41"/>
<path d="M74.3456 179.81C74.2521 179.81 74.1589 179.802 74.0669 179.785L64.9775 178.182V163.16H74.9831L74.7354 163.449C71.2889 167.468 73.8855 173.986 75.74 177.513C75.8766 177.772 75.9376 178.063 75.9158 178.355C75.894 178.646 75.7903 178.926 75.6167 179.161C75.4712 179.362 75.2802 179.525 75.0593 179.638C74.8383 179.751 74.5937 179.81 74.3456 179.81Z" fill="#2F2E41"/>
<path d="M205.849 153.541C227.885 153.541 245.749 135.677 245.749 113.641C245.749 91.6052 227.885 73.7413 205.849 73.7413C183.813 73.7413 165.949 91.6052 165.949 113.641C165.949 135.677 183.813 153.541 205.849 153.541Z" fill="#3F3D56"/>
<path d="M195.647 98.1325V132.079C195.638 132.237 195.672 132.393 195.745 132.533C195.818 132.672 195.928 132.79 196.062 132.872C196.196 132.955 196.35 132.999 196.507 133.002C196.665 133.004 196.82 132.964 196.956 132.885L223.865 115.912C223.997 115.824 224.105 115.705 224.18 115.565C224.254 115.426 224.293 115.27 224.293 115.112C224.293 114.953 224.254 114.797 224.18 114.658C224.105 114.518 223.997 114.399 223.865 114.312L196.956 97.338C196.821 97.2571 196.666 97.2146 196.509 97.2151C196.351 97.2156 196.197 97.259 196.062 97.3407C195.928 97.4224 195.818 97.5394 195.745 97.6789C195.671 97.8184 195.638 97.9752 195.647 98.1325Z" fill="#F2F2F2"/>
</g>
<defs>
<clipPath id="clip0_128_409">
<rect width="268.1" height="232.323" fill="white"/>
</clipPath>
</defs>
</svg>
