<svg width="18" height="22" viewBox="0 0 18 22" fill="none" xmlns="http://www.w3.org/2000/svg">
<path d="M12 21V16.657C12 15.839 12 15.431 12.152 15.063C12.305 14.696 12.594 14.407 13.172 13.828L16.414 10.586C16.704 10.296 16.848 10.152 16.924 9.969C17 9.785 17 9.58 17 9.172V9C17 8.057 17 7.586 16.707 7.293C16.414 7 15.943 7 15 7H3C2.057 7 1.586 7 1.293 7.293C1 7.586 1 8.057 1 9V9.172C1 9.58 1 9.785 1.076 9.968C1.152 10.152 1.296 10.297 1.586 10.586L4.828 13.828C5.406 14.407 5.696 14.695 5.848 15.063C6 15.431 6 15.839 6 16.657V21M12 15H6M1.5 10H16.5M9 4V1M5 4L3 2M13 4L15 2M9 18V20" stroke="black" stroke-width="1.5" stroke-linecap="round"/>
</svg>
