<svg width="30" height="30" viewBox="0 0 30 30" fill="none" xmlns="http://www.w3.org/2000/svg">
<circle cx="15" cy="15" r="15" fill="black" fill-opacity="0.6"/>
<g clip-path="url(#clip0_64_2606)">
<path d="M8.5 8C8.36739 8 8.24021 8.05268 8.14645 8.14645C8.05268 8.24021 8 8.36739 8 8.5V12.5C8 12.6326 7.94732 12.7598 7.85355 12.8536C7.75979 12.9473 7.63261 13 7.5 13C7.36739 13 7.24021 12.9473 7.14645 12.8536C7.05268 12.7598 7 12.6326 7 12.5V8.5C7 8.10218 7.15804 7.72064 7.43934 7.43934C7.72064 7.15804 8.10218 7 8.5 7H12.5C12.6326 7 12.7598 7.05268 12.8536 7.14645C12.9473 7.24021 13 7.36739 13 7.5C13 7.63261 12.9473 7.75979 12.8536 7.85355C12.7598 7.94732 12.6326 8 12.5 8H8.5ZM17 7.5C17 7.36739 17.0527 7.24021 17.1464 7.14645C17.2402 7.05268 17.3674 7 17.5 7H21.5C21.8978 7 22.2794 7.15804 22.5607 7.43934C22.842 7.72064 23 8.10218 23 8.5V12.5C23 12.6326 22.9473 12.7598 22.8536 12.8536C22.7598 12.9473 22.6326 13 22.5 13C22.3674 13 22.2402 12.9473 22.1464 12.8536C22.0527 12.7598 22 12.6326 22 12.5V8.5C22 8.36739 21.9473 8.24021 21.8536 8.14645C21.7598 8.05268 21.6326 8 21.5 8H17.5C17.3674 8 17.2402 7.94732 17.1464 7.85355C17.0527 7.75979 17 7.63261 17 7.5ZM7.5 17C7.63261 17 7.75979 17.0527 7.85355 17.1464C7.94732 17.2402 8 17.3674 8 17.5V21.5C8 21.6326 8.05268 21.7598 8.14645 21.8536C8.24021 21.9473 8.36739 22 8.5 22H12.5C12.6326 22 12.7598 22.0527 12.8536 22.1464C12.9473 22.2402 13 22.3674 13 22.5C13 22.6326 12.9473 22.7598 12.8536 22.8536C12.7598 22.9473 12.6326 23 12.5 23H8.5C8.10218 23 7.72064 22.842 7.43934 22.5607C7.15804 22.2794 7 21.8978 7 21.5V17.5C7 17.3674 7.05268 17.2402 7.14645 17.1464C7.24021 17.0527 7.36739 17 7.5 17ZM22.5 17C22.6326 17 22.7598 17.0527 22.8536 17.1464C22.9473 17.2402 23 17.3674 23 17.5V21.5C23 21.8978 22.842 22.2794 22.5607 22.5607C22.2794 22.842 21.8978 23 21.5 23H17.5C17.3674 23 17.2402 22.9473 17.1464 22.8536C17.0527 22.7598 17 22.6326 17 22.5C17 22.3674 17.0527 22.2402 17.1464 22.1464C17.2402 22.0527 17.3674 22 17.5 22H21.5C21.6326 22 21.7598 21.9473 21.8536 21.8536C21.9473 21.7598 22 21.6326 22 21.5V17.5C22 17.3674 22.0527 17.2402 22.1464 17.1464C22.2402 17.0527 22.3674 17 22.5 17Z" fill="white"/>
</g>
<defs>
<clipPath id="clip0_64_2606">
<rect width="16" height="16" fill="white" transform="translate(7 7)"/>
</clipPath>
</defs>
</svg>
