<svg width="14" height="20" viewBox="0 0 14 20" fill="none" xmlns="http://www.w3.org/2000/svg">
<path d="M6.6 13.2C7.55478 13.2 8.47045 12.8207 9.14558 12.1456C9.82072 11.4705 10.2 10.5548 10.2 9.6V3.6C10.2 2.64522 9.82072 1.72955 9.14558 1.05442C8.47045 0.379285 7.55478 0 6.6 0C5.64522 0 4.72955 0.379285 4.05442 1.05442C3.37928 1.72955 3 2.64522 3 3.6V9.6C3 10.5548 3.37928 11.4705 4.05442 12.1456C4.72955 12.8207 5.64522 13.2 6.6 13.2ZM6.6 12C5.96348 12 5.35303 11.7471 4.90294 11.2971C4.45286 10.847 4.2 10.2365 4.2 9.6V3.6C4.2 2.96348 4.45286 2.35303 4.90294 1.90294C5.35303 1.45286 5.96348 1.2 6.6 1.2C7.23652 1.2 7.84697 1.45286 8.29706 1.90294C8.74714 2.35303 9 2.96348 9 3.6V9.6C9 10.2365 8.74714 10.847 8.29706 11.2971C7.84697 11.7471 7.23652 12 6.6 12ZM0.6 9C0.75913 9 0.911742 9.06321 1.02426 9.17574C1.13679 9.28826 1.2 9.44087 1.2 9.6C1.2 10.3091 1.33968 11.0113 1.61105 11.6665C1.88243 12.3216 2.28019 12.9169 2.78162 13.4184C3.28306 13.9198 3.87835 14.3176 4.53351 14.589C5.18867 14.8603 5.89086 15 6.6 15C7.30914 15 8.01133 14.8603 8.66649 14.589C9.32165 14.3176 9.91694 13.9198 10.4184 13.4184C10.9198 12.9169 11.3176 12.3216 11.5889 11.6665C11.8603 11.0113 12 10.3091 12 9.6C12 9.44087 12.0632 9.28826 12.1757 9.17574C12.2883 9.06321 12.4409 9 12.6 9C12.7591 9 12.9117 9.06321 13.0243 9.17574C13.1368 9.28826 13.2 9.44087 13.2 9.6C13.2002 11.2467 12.5849 12.834 11.4747 14.0503C10.3646 15.2666 8.8399 16.0239 7.2 16.1736V18.6C7.2 18.7591 7.13679 18.9117 7.02426 19.0243C6.91174 19.1368 6.75913 19.2 6.6 19.2C6.44087 19.2 6.28826 19.1368 6.17574 19.0243C6.06321 18.9117 6 18.7591 6 18.6V16.1736C4.3601 16.0239 2.8354 15.2666 1.72526 14.0503C0.615131 12.834 -0.000231799 11.2467 6.54996e-08 9.6C6.54996e-08 9.44087 0.0632143 9.28826 0.175736 9.17574C0.288258 9.06321 0.44087 9 0.6 9Z" fill="black"/>
</svg>
