<svg width="30" height="30" viewBox="0 0 30 30" fill="none" xmlns="http://www.w3.org/2000/svg">
<circle cx="15" cy="15" r="15" fill="black" fill-opacity="0.6"/>
<path d="M16.9961 8.00595C16.9961 7.13295 15.9561 6.67895 15.3161 7.27295L11.4441 10.8659C11.3517 10.9519 11.2303 10.9998 11.1041 10.9999H8.49609C8.09827 10.9999 7.71674 11.158 7.43543 11.4393C7.15413 11.7206 6.99609 12.1021 6.99609 12.4999V17.4999C6.99609 17.8978 7.15413 18.2793 7.43543 18.5606C7.71674 18.8419 8.09827 18.9999 8.49609 18.9999H11.1041C11.2301 18.9998 11.3516 19.0473 11.4441 19.1329L15.3161 22.7269C15.9561 23.3199 16.9961 22.8669 16.9961 21.9939V8.00595ZM12.1241 11.5989L15.9961 8.00595V21.9939L12.1241 18.3999C11.8467 18.1428 11.4824 17.9999 11.1041 17.9999H8.49609C8.36349 17.9999 8.23631 17.9473 8.14254 17.8535C8.04877 17.7597 7.99609 17.6326 7.99609 17.4999V12.4999C7.99609 12.3673 8.04877 12.2402 8.14254 12.1464C8.23631 12.0526 8.36349 11.9999 8.49609 11.9999H11.1041C11.4824 12 11.8467 11.8561 12.1241 11.5989ZM18.1431 12.6459C18.2369 12.5522 18.364 12.4996 18.4966 12.4996C18.6292 12.4996 18.7563 12.5522 18.8501 12.6459L20.4961 14.2929L22.1421 12.6459C22.2358 12.5521 22.3631 12.4993 22.4957 12.4992C22.5614 12.4991 22.6265 12.512 22.6872 12.5371C22.7479 12.5622 22.8031 12.599 22.8496 12.6454C22.8961 12.6919 22.933 12.747 22.9582 12.8077C22.9833 12.8684 22.9963 12.9334 22.9964 12.9991C22.9964 13.0648 22.9835 13.1299 22.9584 13.1906C22.9333 13.2513 22.8965 13.3065 22.8501 13.3529L21.2031 14.9999L22.8501 16.6459C22.9438 16.7398 22.9965 16.8671 22.9964 16.9998C22.9963 17.1325 22.9435 17.2597 22.8496 17.3534C22.8031 17.3999 22.7479 17.4367 22.6872 17.4618C22.6265 17.4869 22.5614 17.4998 22.4957 17.4997C22.3631 17.4996 22.2358 17.4468 22.1421 17.3529L20.4961 15.7069L18.8501 17.3529C18.804 17.4007 18.7488 17.4388 18.6878 17.465C18.6268 17.4912 18.5612 17.505 18.4948 17.5056C18.4284 17.5061 18.3626 17.4935 18.3011 17.4684C18.2397 17.4432 18.1838 17.4061 18.1369 17.3591C18.0899 17.3122 18.0528 17.2564 18.0277 17.1949C18.0025 17.1335 17.9899 17.0676 17.9905 17.0012C17.991 16.9349 18.0048 16.8692 18.031 16.8082C18.0572 16.7472 18.0953 16.6921 18.1431 16.6459L19.7881 14.9999L18.1421 13.3529C18.0484 13.2592 17.9957 13.132 17.9957 12.9994C17.9957 12.8669 18.0494 12.7397 18.1431 12.6459Z" fill="white"/>
</svg>
