<svg width="24" height="24" viewBox="0 0 24 24" fill="none" xmlns="http://www.w3.org/2000/svg">
<path d="M12.0002 3C11.2045 3 10.4415 3.31607 9.87885 3.87868C9.31625 4.44129 9.00018 5.20435 9.00018 6V10C9.00018 10.7956 9.31625 11.5587 9.87885 12.1213C10.4415 12.6839 11.2045 13 12.0002 13C12.7958 13 13.5589 12.6839 14.1215 12.1213C14.6841 11.5587 15.0002 10.7956 15.0002 10V6C15.0002 5.20435 14.6841 4.44129 14.1215 3.87868C13.5589 3.31607 12.7958 3 12.0002 3ZM12.0002 1C12.6568 1 13.307 1.12933 13.9136 1.3806C14.5202 1.63188 15.0714 2.00017 15.5357 2.46447C16 2.92876 16.3683 3.47995 16.6196 4.08658C16.8708 4.69321 17.0002 5.34339 17.0002 6V10C17.0002 11.3261 16.4734 12.5979 15.5357 13.5355C14.598 14.4732 13.3263 15 12.0002 15C10.6741 15 9.40232 14.4732 8.46464 13.5355C7.52696 12.5979 7.00018 11.3261 7.00018 10V6C7.00018 4.67392 7.52696 3.40215 8.46464 2.46447C9.40232 1.52678 10.6741 1 12.0002 1ZM3.05518 11H5.07018C5.31247 12.6648 6.14605 14.1867 7.41841 15.2873C8.69077 16.3879 10.3169 16.9936 11.9992 16.9936C13.6815 16.9936 15.3076 16.3879 16.5799 15.2873C17.8523 14.1867 18.6859 12.6648 18.9282 11H20.9442C20.7168 13.0287 19.8068 14.9199 18.3634 16.3635C16.92 17.8071 15.0289 18.7174 13.0002 18.945V23H11.0002V18.945C8.97131 18.7176 7.07996 17.8074 5.63635 16.3638C4.19274 14.9202 3.28259 13.0289 3.05518 11Z" fill="black"/>
</svg>
