<svg width="263" height="163" viewBox="0 0 263 163" fill="none" xmlns="http://www.w3.org/2000/svg">
<g clip-path="url(#clip0_40_5057)">
<path d="M228.37 127.736C228.312 127.661 228.254 127.587 228.196 127.512C228.139 127.438 228.081 127.363 228.024 127.288C227.967 127.213 227.91 127.138 227.854 127.063C227.797 126.988 227.741 126.912 227.685 126.836C227.591 124.653 227.59 122.489 227.681 120.345C227.77 118.216 227.95 116.112 228.221 114.034C228.489 111.972 228.844 109.941 229.286 107.942C229.724 105.959 230.247 104.013 230.853 102.104C230.922 101.884 230.993 101.665 231.064 101.447C231.136 101.229 231.209 101.012 231.283 100.796C231.357 100.58 231.432 100.364 231.509 100.15C231.585 99.9353 231.663 99.7216 231.742 99.5086C232.326 97.9149 232.969 96.3603 233.671 94.8447C234.368 93.3396 235.121 91.8761 235.929 90.4543C236.732 89.0424 237.587 87.674 238.496 86.3492C239.398 85.0342 240.35 83.7652 241.353 82.5422L241.511 82.3503L241.669 82.1595L241.828 81.9696L241.988 81.7809L242.103 81.6454L242.219 81.5104C242.258 81.4656 242.297 81.4209 242.336 81.3764C242.375 81.332 242.415 81.288 242.455 81.2445L242.551 81.1923L242.645 81.1406L242.739 81.0891L242.833 81.0377L242.839 81.0358L242.845 81.0329L242.851 81.0301L242.857 81.0279L242.895 81.0072L242.932 80.9862L242.969 80.9653L243.005 80.9443L243.169 80.8565L243.332 80.77L243.495 80.6838L243.657 80.5967L243.533 80.5348L243.223 80.3805L243.225 80.3792C243.252 80.3906 243.278 80.4026 243.304 80.4152C243.331 80.4279 243.357 80.4401 243.383 80.4518C243.41 80.4643 243.436 80.4767 243.462 80.489C243.488 80.5013 243.514 80.514 243.541 80.5269L243.571 80.5397L243.601 80.5527L243.632 80.5658C243.642 80.5699 243.652 80.5748 243.661 80.5804C243.67 80.585 243.679 80.5888 243.688 80.5918L243.715 80.6032L243.741 80.6146L243.768 80.626C244.898 81.144 246.031 81.6698 247.149 82.2212C248.267 82.7726 249.368 83.3472 250.439 83.9657C251.507 84.5794 252.542 85.2488 253.54 85.9713C254.536 86.69 255.478 87.4799 256.359 88.3347C257.289 89.2435 258.12 90.2477 258.84 91.3306C259.552 92.3945 260.138 93.5378 260.585 94.7374C261.015 95.8793 261.271 97.0793 261.345 98.2973C261.416 99.4689 261.251 100.643 260.861 101.749C260.808 101.894 260.751 102.036 260.69 102.176C260.628 102.317 260.563 102.455 260.494 102.591C260.425 102.727 260.351 102.86 260.274 102.992C260.196 103.123 260.115 103.252 260.03 103.378C259.994 103.431 259.958 103.483 259.921 103.535C259.884 103.586 259.846 103.638 259.808 103.689C259.77 103.74 259.732 103.79 259.693 103.841C259.654 103.891 259.614 103.941 259.574 103.991C258.834 104.921 257.894 105.672 256.823 106.189C255.747 106.703 254.577 106.993 253.385 107.042C252.132 107.094 250.88 106.912 249.694 106.506C248.422 106.071 247.239 105.408 246.206 104.548C245.848 104.253 245.51 103.936 245.191 103.598C244.876 103.264 244.582 102.91 244.311 102.54C244.042 102.172 243.797 101.788 243.576 101.389C243.357 100.994 243.164 100.585 242.998 100.164C242.92 101.47 243.123 102.778 243.593 103.999C244.088 105.283 244.762 106.491 245.594 107.587C246.473 108.754 247.448 109.846 248.509 110.85C249.577 111.875 250.712 112.835 251.832 113.72C252.953 114.604 254.113 115.509 255.237 116.452C256.359 117.38 257.428 118.371 258.437 119.42C259.415 120.434 260.281 121.551 261.019 122.752C261.743 123.938 262.267 125.235 262.569 126.591C262.892 128.068 262.876 129.6 262.521 131.07C262.349 131.785 262.103 132.481 261.788 133.146C261.471 133.816 261.091 134.455 260.653 135.053L260.612 135.108L260.571 135.162L260.529 135.217L260.486 135.271C259.417 136.668 258.075 137.834 256.542 138.696C255.77 139.13 254.956 139.486 254.113 139.757C253.251 140.035 252.362 140.226 251.461 140.328C249.748 140.486 248.02 140.387 246.336 140.035C244.601 139.671 242.915 139.107 241.311 138.353C239.653 137.577 238.068 136.653 236.575 135.593C235.069 134.527 233.644 133.351 232.309 132.077C231.955 131.739 231.607 131.395 231.265 131.044C230.923 130.694 230.588 130.338 230.26 129.976C229.931 129.614 229.609 129.246 229.294 128.873C228.98 128.5 228.672 128.12 228.37 127.736Z" fill="#F2F2F2"/>
<path d="M255.922 102.443C254.863 101.894 253.844 101.268 252.875 100.573C250.938 99.1842 249.207 97.5278 247.735 95.6532C247.005 94.723 246.343 93.7408 245.756 92.7144C245.266 91.8473 244.831 90.9502 244.454 90.0285C244.086 89.1292 243.776 88.207 243.527 87.2677C243.284 86.3502 243.102 85.4173 242.984 84.4755C242.868 83.553 242.818 82.6234 242.832 81.6937C242.833 81.6413 242.835 81.5892 242.836 81.5375C242.837 81.4857 242.838 81.4337 242.839 81.3812C242.841 81.3288 242.843 81.277 242.845 81.226L242.853 81.0715C242.809 81.1065 242.764 81.142 242.72 81.1777L242.587 81.2855L242.455 81.3942L242.324 81.5031L242.24 81.5731L242.155 81.6435L242.071 81.7145L241.987 81.7856L242.102 81.6504L242.22 81.5108C242.259 81.466 242.298 81.4213 242.337 81.3768C242.377 81.3324 242.416 81.2884 242.457 81.2449L242.552 81.1927L242.647 81.141L242.739 81.0896L242.833 81.0382L242.839 81.0363L242.845 81.0335L242.851 81.0306L242.857 81.0285L242.894 81.0077L242.932 80.9869L242.969 80.966L243.005 80.945L243.168 80.8571L243.331 80.7706L243.495 80.6844L243.658 80.5979L243.53 80.5346L243.22 80.38L243.222 80.3787C243.249 80.3901 243.275 80.4021 243.301 80.4147C243.328 80.4274 243.354 80.4396 243.38 80.4514C243.407 80.4638 243.433 80.4762 243.459 80.4885C243.485 80.5008 243.511 80.5135 243.538 80.5265L243.568 80.5392L243.598 80.5522L243.629 80.5653C243.639 80.5694 243.649 80.5742 243.658 80.5798L243.655 80.6291L243.652 80.6753L243.649 80.7212L243.647 80.7677C243.532 82.3337 243.614 83.9078 243.889 85.4535C244.173 87.0447 244.638 88.598 245.276 90.0829C245.935 91.6199 246.759 93.0807 247.734 94.4398C248.74 95.8457 249.894 97.1405 251.175 98.3021C252.464 99.4552 253.87 100.47 255.37 101.331C256.111 101.755 256.874 102.14 257.656 102.484C258.431 102.825 259.224 103.123 260.032 103.377C259.996 103.43 259.96 103.482 259.923 103.534C259.886 103.586 259.848 103.637 259.81 103.688C259.772 103.739 259.734 103.789 259.695 103.84C259.656 103.89 259.616 103.94 259.576 103.99C259.265 103.887 258.955 103.777 258.647 103.661C258.339 103.544 258.032 103.421 257.727 103.292C257.422 103.163 257.119 103.028 256.819 102.886C256.518 102.744 256.219 102.597 255.922 102.443Z" fill="white"/>
<path d="M234.958 114.147C234.611 113.629 234.284 113.101 233.976 112.564C233.668 112.027 233.38 111.483 233.113 110.931C232.845 110.378 232.598 109.819 232.372 109.253C232.145 108.687 231.94 108.116 231.756 107.54C231.662 107.235 231.575 106.928 231.496 106.62C231.416 106.313 231.345 106.005 231.28 105.696C231.216 105.387 231.159 105.078 231.109 104.768C231.059 104.458 231.017 104.148 230.982 103.839C230.965 103.695 230.949 103.55 230.935 103.405C230.921 103.26 230.909 103.116 230.898 102.971C230.887 102.826 230.878 102.682 230.871 102.538C230.863 102.393 230.857 102.249 230.853 102.105C230.922 101.885 230.992 101.666 231.064 101.447C231.135 101.229 231.208 101.012 231.282 100.795C231.356 100.579 231.431 100.363 231.508 100.149C231.584 99.9343 231.662 99.7205 231.741 99.5076C231.724 99.686 231.709 99.8648 231.697 100.044C231.685 100.223 231.675 100.403 231.668 100.584C231.66 100.764 231.656 100.945 231.654 101.126C231.652 101.307 231.652 101.489 231.655 101.671C231.654 101.77 231.655 101.869 231.657 101.969C231.659 102.068 231.662 102.167 231.665 102.266C231.669 102.365 231.673 102.464 231.678 102.564C231.683 102.663 231.689 102.762 231.696 102.861C231.772 103.974 231.947 105.078 232.218 106.16C232.492 107.255 232.85 108.328 233.288 109.368C233.734 110.429 234.249 111.459 234.829 112.453C235.419 113.464 236.064 114.442 236.761 115.382C237.512 116.397 238.305 117.386 239.141 118.347C239.977 119.309 240.845 120.244 241.744 121.153C242.645 122.061 243.571 122.941 244.524 123.793C245.478 124.645 246.447 125.467 247.432 126.26C248.44 127.075 249.469 127.858 250.519 128.61C251.568 129.363 252.635 130.082 253.718 130.768C254.802 131.455 255.901 132.107 257.017 132.727C258.133 133.346 259.261 133.93 260.402 134.478C260.454 134.504 260.502 134.539 260.542 134.581C260.581 134.623 260.612 134.671 260.635 134.724C260.658 134.775 260.671 134.831 260.674 134.887C260.678 134.944 260.67 135 260.652 135.054C260.647 135.078 260.638 135.1 260.628 135.122C260.618 135.143 260.606 135.163 260.591 135.181C260.577 135.2 260.562 135.217 260.544 135.232C260.527 135.247 260.507 135.26 260.487 135.271C260.466 135.28 260.443 135.287 260.42 135.291C260.397 135.296 260.373 135.297 260.35 135.295C260.326 135.294 260.302 135.289 260.279 135.282C260.255 135.275 260.232 135.265 260.211 135.253C260.07 135.185 259.929 135.117 259.788 135.049C259.647 134.981 259.506 134.912 259.366 134.843C259.226 134.774 259.086 134.704 258.946 134.634C258.806 134.564 258.666 134.492 258.526 134.42C257.363 133.823 256.216 133.189 255.084 132.52C253.952 131.851 252.837 131.147 251.739 130.408C250.641 129.669 249.564 128.897 248.506 128.092C247.448 127.287 246.412 126.449 245.399 125.58C244.42 124.743 243.454 123.878 242.511 122.984C241.568 122.089 240.649 121.166 239.763 120.213C238.878 119.261 238.028 118.279 237.223 117.268C236.418 116.256 235.66 115.217 234.958 114.147Z" fill="white"/>
<path d="M256.866 31.021L256.033 31.1293L261.618 10.1605C262.03 8.76037 262.097 7.28142 261.813 5.84977C261.568 4.67998 260.96 3.6173 260.076 2.81252C259.151 2.00786 258.017 1.48135 256.805 1.29376C255.329 1.06512 253.822 1.1326 252.372 1.49227L214.412 10.1393C213.087 10.4609 211.819 10.9827 210.651 11.6868C209.381 12.4422 208.2 13.3378 207.13 14.3569C206.03 15.3962 205.042 16.5487 204.183 17.7953C203.344 19.0019 202.66 20.3093 202.147 21.6867L162.429 130.957C161.769 132.754 161.34 134.628 161.152 136.533C160.978 138.224 161.06 139.932 161.396 141.599C161.675 143.047 162.26 144.419 163.11 145.624C163.89 146.72 164.988 147.549 166.256 147.998L206.363 161.809C208.145 162.416 210.058 162.53 211.899 162.138C213.867 161.71 215.718 160.857 217.323 159.64C219.126 158.285 220.676 156.624 221.902 154.731C223.261 152.652 224.276 150.368 224.909 147.966L251.798 47.0222L252.642 46.9546L256.866 31.021Z" fill="#2F2E41"/>
<path d="M253.964 29.86L253.131 29.9683L258.717 8.99952C259.128 7.59936 259.195 6.12041 258.912 4.68876C258.666 3.51897 258.058 2.45629 257.175 1.65151C256.249 0.846846 255.115 0.320342 253.903 0.132748C252.427 -0.0958864 250.921 -0.0284063 249.471 0.331261L211.51 8.97834C210.185 9.29987 208.917 9.82171 207.75 10.5258C206.48 11.2811 205.299 12.1768 204.229 13.1959C203.128 14.2352 202.14 15.3877 201.281 16.6343C200.442 17.8409 199.758 19.1483 199.245 20.5257L159.527 129.796C158.867 131.593 158.438 133.467 158.251 135.372C158.077 137.063 158.159 138.771 158.494 140.438C158.774 141.886 159.358 143.258 160.208 144.463C160.988 145.559 162.087 146.388 163.354 146.837L203.462 160.648C205.244 161.255 207.156 161.369 208.997 160.977C210.965 160.549 212.817 159.696 214.422 158.479C216.224 157.124 217.774 155.463 219.001 153.57C220.36 151.491 221.375 149.207 222.007 146.805L248.897 45.8612L249.74 45.7935L253.964 29.86Z" fill="#3F3D56"/>
<path d="M249.136 3.06724L243.556 4.28997C243.617 4.77287 243.569 5.2633 243.415 5.72515C243.241 6.26537 242.989 6.77717 242.667 7.24421C241.941 8.30449 240.973 9.17605 239.842 9.78632C239.707 9.8583 239.572 9.92476 239.438 9.98571C239.303 10.0467 239.169 10.102 239.034 10.1517C238.9 10.2014 238.767 10.2454 238.635 10.2835C238.503 10.3216 238.373 10.3537 238.243 10.3798L216.427 14.7986C216.022 14.8926 215.6 14.8879 215.198 14.7846C214.874 14.6976 214.588 14.505 214.385 14.2373C214.181 13.9498 214.066 13.6087 214.054 13.2563C214.037 12.8068 214.108 12.3583 214.263 11.936C214.302 11.8221 214.346 11.7073 214.396 11.5918C214.445 11.4763 214.499 11.3608 214.557 11.2453C214.616 11.1292 214.679 11.0137 214.748 10.8988C214.816 10.7838 214.889 10.669 214.965 10.5543L210.834 11.4595C209.839 11.6929 208.886 12.0786 208.009 12.603C207.05 13.1678 206.159 13.8396 205.352 14.6056C204.52 15.3881 203.774 16.2572 203.127 17.1979C202.495 18.1069 201.982 19.0926 201.599 20.1312L161.956 130.352C161.463 131.706 161.146 133.118 161.014 134.554C160.892 135.821 160.964 137.099 161.228 138.344C161.447 139.42 161.896 140.436 162.544 141.323C163.138 142.128 163.965 142.73 164.914 143.046L205.317 156.175C206.65 156.603 208.073 156.667 209.439 156.36C210.893 156.027 212.26 155.386 213.446 154.48C214.772 153.475 215.914 152.248 216.821 150.852C217.824 149.319 218.577 147.636 219.051 145.866L255.967 9.60928C256.276 8.56916 256.334 7.47015 256.134 6.40341C255.961 5.52923 255.519 4.73102 254.87 4.12019C254.19 3.50948 253.35 3.10474 252.449 2.95317C251.348 2.76827 250.221 2.80706 249.136 3.06724Z" fill="white"/>
<path d="M227.468 55.269H147.096V28.0265H227.468V55.269Z" fill="white"/>
<path d="M203.971 64.884H125.201V103.077H203.971V64.884Z" fill="white"/>
<path d="M137.998 83.2242C141.144 83.2242 143.695 80.6726 143.695 77.5251C143.695 74.3775 141.144 71.8259 137.998 71.8259C134.851 71.8259 132.3 74.3775 132.3 77.5251C132.3 80.6726 134.851 83.2242 137.998 83.2242Z" fill="#FFC000"/>
<path d="M151.157 73.7257C150.905 73.7257 150.663 73.8258 150.485 74.0039C150.307 74.1821 150.207 74.4236 150.207 74.6756C150.207 74.9275 150.307 75.1691 150.485 75.3472C150.663 75.5253 150.905 75.6254 151.157 75.6254H195.924C196.176 75.6248 196.417 75.5244 196.594 75.3464C196.772 75.1683 196.872 74.9271 196.872 74.6756C196.872 74.4241 196.772 74.1828 196.594 74.0047C196.417 73.8267 196.176 73.7263 195.924 73.7257H151.157Z" fill="#E6E6E6"/>
<path d="M151.156 79.4248C151.031 79.4244 150.907 79.4486 150.792 79.496C150.677 79.5434 150.572 79.6131 150.483 79.7012C150.395 79.7892 150.324 79.8938 150.276 80.009C150.228 80.1243 150.203 80.2478 150.203 80.3727C150.203 80.4975 150.227 80.6212 150.275 80.7366C150.322 80.852 150.392 80.9569 150.48 81.0453C150.568 81.1337 150.673 81.2039 150.788 81.2518C150.904 81.2997 151.027 81.3244 151.152 81.3245H170.42C170.544 81.3245 170.668 81.3 170.783 81.2522C170.898 81.2045 171.003 81.1345 171.091 81.0463C171.179 80.9581 171.249 80.8534 171.297 80.7382C171.345 80.6229 171.369 80.4994 171.369 80.3747C171.369 80.2499 171.345 80.1264 171.297 80.0112C171.249 79.8959 171.179 79.7912 171.091 79.703C171.003 79.6148 170.898 79.5448 170.783 79.4971C170.668 79.4494 170.544 79.4248 170.42 79.4248H151.156Z" fill="#E6E6E6"/>
<path d="M133.627 88.5361C132.904 88.5361 132.316 88.9623 132.316 89.486C132.316 90.0097 132.904 90.4359 133.627 90.4359H195.392C196.115 90.4359 196.703 90.0097 196.703 89.486C196.703 88.9623 196.115 88.5361 195.392 88.5361H133.627Z" fill="#E6E6E6"/>
<path d="M133.627 94.2352C132.904 94.2352 132.316 94.6614 132.316 95.1851C132.316 95.7088 132.904 96.1349 133.627 96.1349H181.175C181.897 96.1349 182.485 95.7088 182.485 95.1851C182.485 94.6614 181.897 94.2352 181.175 94.2352H133.627Z" fill="#E6E6E6"/>
<path d="M204.771 103.878H124.399V64.0828H204.771V103.878ZM126.002 102.276H203.169V65.6853H126.002V102.276Z" fill="#E6E6E6"/>
<path d="M160.694 47.1681C163.841 47.1681 166.392 44.6165 166.392 41.4689C166.392 38.3214 163.841 35.7698 160.694 35.7698C157.547 35.7698 154.996 38.3214 154.996 41.4689C154.996 44.6165 157.547 47.1681 160.694 47.1681Z" fill="#FFC000"/>
<path d="M173.853 37.6694C173.601 37.6694 173.36 37.7695 173.181 37.9476C173.003 38.1258 172.903 38.3674 172.903 38.6193C172.903 38.8712 173.003 39.1128 173.181 39.2909C173.36 39.4691 173.601 39.5692 173.853 39.5692H218.621C218.872 39.5685 219.113 39.4682 219.291 39.2901C219.468 39.1121 219.568 38.8708 219.568 38.6193C219.568 38.3678 219.468 38.1265 219.291 37.9485C219.113 37.7704 218.872 37.6701 218.621 37.6694H173.853Z" fill="#E6E6E6"/>
<path d="M173.853 43.3685C173.728 43.3681 173.605 43.3923 173.489 43.4397C173.374 43.4871 173.269 43.5569 173.18 43.6449C173.092 43.7329 173.022 43.8375 172.974 43.9528C172.926 44.068 172.901 44.1915 172.9 44.3164C172.9 44.4412 172.924 44.5649 172.972 44.6803C173.02 44.7957 173.089 44.9007 173.178 44.9891C173.266 45.0775 173.37 45.1476 173.486 45.1955C173.601 45.2434 173.724 45.2682 173.849 45.2683H209.076C209.327 45.2683 209.569 45.1682 209.747 44.99C209.925 44.8119 210.025 44.5703 210.025 44.3184C210.025 44.0665 209.925 43.8249 209.747 43.6467C209.569 43.4686 209.327 43.3685 209.076 43.3685H173.853Z" fill="#E6E6E6"/>
<path d="M227.468 55.269H147.096V28.0265H227.468V55.269ZM148.698 53.6665H225.866V29.629H148.698V53.6665Z" fill="#E6E6E6"/>
<path d="M69.5458 159.042H73.5972L75.5247 143.411L69.5449 143.411L69.5458 159.042Z" fill="#FFB6B6"/>
<path d="M81.4111 162.805L68.6778 162.805L68.6776 157.884L77.0914 157.884C78.237 157.884 79.3357 158.339 80.1458 159.149C80.9559 159.959 81.4111 161.058 81.4111 162.204L81.4111 162.805Z" fill="#2F2E41"/>
<path d="M29.0332 153.79L32.5836 155.742L41.8018 142.974L36.5619 140.092L29.0332 153.79Z" fill="#FFB6B6"/>
<path d="M37.6182 162.805L26.46 156.669L28.8301 152.357L36.2031 156.411C37.207 156.963 37.9506 157.892 38.2702 158.992C38.5897 160.093 38.4592 161.275 37.9073 162.279L37.6182 162.805Z" fill="#2F2E41"/>
<path d="M69.3566 150.366C68.9956 150.366 68.647 150.234 68.3759 149.995C68.1048 149.757 67.9297 149.428 67.8833 149.07L62.8164 110.015C62.794 109.843 62.7176 109.681 62.5981 109.555C62.4786 109.428 62.3222 109.342 62.1511 109.31C61.98 109.277 61.803 109.3 61.6454 109.374C61.4879 109.448 61.3577 109.57 61.2736 109.722L40.1569 148.044C39.9826 148.357 39.7019 148.597 39.3658 148.72C39.0296 148.844 38.6604 148.842 38.3252 148.716L33.7223 146.962C33.5372 146.892 33.368 146.785 33.2248 146.648C33.0815 146.511 32.967 146.347 32.888 146.165C32.809 145.984 32.7671 145.788 32.7648 145.59C32.7624 145.392 32.7997 145.195 32.8744 145.011L47.5025 109.068C47.5395 108.977 47.5646 108.881 47.5772 108.783C49.5585 93.4442 54.5995 85.6439 56.0973 83.6186C56.2067 83.4698 56.2787 83.2968 56.3072 83.1142C56.3357 82.9317 56.32 82.745 56.2612 82.5698L56.0553 81.952C55.973 81.7067 55.9562 81.4443 56.0064 81.1906C56.0566 80.9368 56.1721 80.7006 56.3415 80.5051C61.7385 74.3563 71.1453 77.7116 71.2397 77.7461L71.2869 77.7635L71.3164 77.8039C81.8642 92.2731 77.9643 139.269 77.0754 148.543C77.0423 148.891 76.8869 149.217 76.6369 149.462C76.3869 149.707 76.0583 149.855 75.7093 149.881L69.4721 150.362C69.4334 150.365 69.3949 150.366 69.3566 150.366Z" fill="#2F2E41"/>
<path d="M66.497 41.8476C71.4768 41.8476 75.5136 37.8097 75.5136 32.8288C75.5136 27.8478 71.4768 23.8099 66.497 23.8099C61.5173 23.8099 57.4805 27.8478 57.4805 32.8288C57.4805 37.8097 61.5173 41.8476 66.497 41.8476Z" fill="#FFB8B8"/>
<path d="M52.5566 90.2175L79.0884 92.6329C76.7753 84.5876 74.656 76.5706 76.3835 68.5827C78.5771 61.4513 78.781 57.5007 72.9942 54.1422L69.087 45.4239L62.0157 45.1667L58.5677 44.2214C55.782 48.7015 54.6425 54.0119 55.3448 59.2408C56.8437 70.6114 56.4389 81.1628 52.5566 90.2175Z" fill="#FFC000"/>
<path d="M56.5844 49.9721L53.9156 37.7201C53.3588 34.8199 53.4985 31.8289 54.3233 28.9933C54.4131 28.7027 54.5214 28.4181 54.6474 28.1413C55.3861 26.5309 56.5476 25.1511 58.0082 24.1487C59.4687 23.1462 61.1737 22.5587 62.9417 22.4487C69.0068 22.0296 69.8972 22.6692 70.1165 22.9846C73.5438 22.8462 76.2013 24.1706 77.4139 26.6215C77.5326 26.8648 77.5966 27.1312 77.6013 27.4019C77.606 27.6726 77.5514 27.941 77.4411 28.1882C77.3309 28.4355 77.1679 28.6556 76.9634 28.833C76.7589 29.0104 76.5181 29.1408 76.2578 29.215C74.564 29.7035 72.1832 30.2461 70.3977 30.0866C66.8187 34.3805 68.2818 42.2477 71.9129 46.9351L72.0556 47.1194L68.458 47.8568L64.2774 42.0334C64.1946 41.9182 64.0749 41.8349 63.9381 41.7973C63.8013 41.7598 63.6558 41.7704 63.5259 41.8274C63.396 41.8843 63.2895 41.9841 63.2244 42.1101C63.1592 42.2361 63.1392 42.3807 63.1678 42.5196L64.4371 48.6873L56.5844 49.9721Z" fill="#2F2E41"/>
<path d="M251.589 162.9H0V162.267H251.703L251.589 162.9Z" fill="#CACACA"/>
<path d="M108.122 82.963L42.4997 129.38L26.7744 107.137L92.3963 60.7201L108.122 82.963Z" fill="white"/>
<path d="M48.9259 114.912C51.4951 113.095 52.1051 109.538 50.2882 106.969C48.4713 104.399 44.9157 103.789 42.3464 105.606C39.7771 107.423 39.1672 110.98 40.9841 113.55C42.8009 116.12 46.3566 116.73 48.9259 114.912Z" fill="#FFC000"/>
<path d="M54.1865 99.5574C53.9809 99.7029 53.8414 99.9241 53.7988 100.172C53.7562 100.421 53.814 100.676 53.9594 100.881C54.1049 101.087 54.326 101.227 54.5742 101.269C54.8225 101.312 55.0774 101.254 55.2831 101.108L91.835 75.2541C92.0399 75.1083 92.1787 74.8872 92.2209 74.6393C92.2631 74.3914 92.2053 74.1368 92.0601 73.9315C91.9149 73.7261 91.6942 73.5867 91.4465 73.5439C91.1987 73.5011 90.9441 73.5583 90.7384 73.703L54.1865 99.5574Z" fill="#E6E6E6"/>
<path d="M57.4764 104.211C57.2707 104.356 57.1311 104.577 57.0881 104.825C57.0452 105.073 57.1025 105.328 57.2473 105.533C57.3922 105.739 57.6129 105.879 57.8608 105.922C58.1088 105.966 58.3637 105.909 58.5697 105.764L58.573 105.762L87.3312 85.42C87.5368 85.2745 87.6762 85.0533 87.7188 84.805C87.7614 84.5567 87.7036 84.3017 87.5582 84.096C87.4862 83.9942 87.3949 83.9075 87.2894 83.841C87.1839 83.7744 87.0663 83.7293 86.9434 83.7083C86.6952 83.6657 86.4402 83.7235 86.2346 83.8689L57.4764 104.211Z" fill="#E6E6E6"/>
<path d="M108.122 82.963L42.4997 129.38L26.7744 107.137L92.3963 60.7201L108.122 82.963ZM42.8828 127.146L105.889 82.5798L92.0132 62.9537L29.0075 107.52L42.8828 127.146Z" fill="#E6E6E6"/>
<path d="M257.962 74.722C258.195 74.713 258.427 74.7525 258.644 74.838C258.849 74.9204 259.036 75.0444 259.191 75.2023C259.347 75.3611 259.469 75.5503 259.549 75.7581C259.634 75.9784 259.672 76.2136 259.662 76.4494C259.653 76.6913 259.597 76.929 259.497 77.1494C259.399 77.3656 259.263 77.5623 259.095 77.7299C258.928 77.8966 258.733 78.0316 258.518 78.1281C258.299 78.2261 258.064 78.28 257.824 78.2865C257.592 78.2936 257.36 78.252 257.144 78.1644C256.939 78.0807 256.754 77.9557 256.6 77.7972C256.445 77.6379 256.325 77.4487 256.246 77.2411C256.163 77.0216 256.125 76.7875 256.135 76.553C256.145 76.3123 256.201 76.0758 256.301 75.8565C256.398 75.6424 256.533 75.4475 256.699 75.2812C256.864 75.1148 257.058 74.9798 257.272 74.8827C257.489 74.7843 257.724 74.7297 257.962 74.722Z" fill="#F2F2F2"/>
<path d="M73.4692 97.3486L69.2019 74.0148L69.5024 59.5847L59.8848 59.2841L61.6881 75.5179L67.9067 98.0291C67.3906 98.6566 67.0743 99.4245 66.9987 100.234C66.9231 101.043 67.0916 101.856 67.4826 102.568C67.8735 103.281 68.4689 103.859 69.1919 104.23C69.9149 104.6 70.7324 104.746 71.5388 104.647C72.3452 104.549 73.1035 104.21 73.716 103.676C74.3284 103.142 74.7668 102.437 74.9745 101.652C75.1823 100.866 75.15 100.036 74.8816 99.2692C74.6133 98.5021 74.1213 97.8332 73.4692 97.3486Z" fill="#FFB8B8"/>
<path d="M59.2832 60.7872C62.7677 59.4596 66.6186 59.4596 70.1031 60.7872L69.502 48.7621C69.502 48.1304 69.3776 47.5049 69.1359 46.9213C68.8943 46.3378 68.54 45.8075 68.0935 45.3609C67.647 44.9142 67.1168 44.5599 66.5334 44.3182C65.95 44.0764 65.3247 43.952 64.6932 43.952C64.0616 43.952 63.4363 44.0764 62.8529 44.3182C62.2695 44.5599 61.7393 44.9142 61.2928 45.3609C60.8462 45.8075 60.492 46.3378 60.2504 46.9213C60.0087 47.5049 59.8843 48.1304 59.8843 48.7621L59.2832 60.7872Z" fill="#FFC000"/>
</g>
<defs>
<clipPath id="clip0_40_5057">
<rect width="262.8" height="162.9" fill="white"/>
</clipPath>
</defs>
</svg>
