<svg width="24" height="25" viewBox="0 0 24 25" fill="none" xmlns="http://www.w3.org/2000/svg">
<path d="M12.459 2.16053C12.3259 2.05677 12.162 2.00043 11.9932 2.00043C11.8245 2.00043 11.6606 2.05677 11.5275 2.16053L0.75 10.5643L1.68225 11.7433L3 10.7158V20C3.00079 20.3976 3.15908 20.7787 3.44022 21.0598C3.72135 21.341 4.10242 21.4992 4.5 21.5H19.5C19.8976 21.4992 20.2787 21.341 20.5598 21.0598C20.8409 20.7787 20.9992 20.3976 21 20V10.7225L22.3177 11.75L23.25 10.571L12.459 2.16053ZM13.5 20H10.5V14H13.5V20ZM15 20V14C14.9996 13.6023 14.8414 13.221 14.5602 12.9398C14.279 12.6586 13.8977 12.5004 13.5 12.5H10.5C10.1023 12.5004 9.721 12.6586 9.43978 12.9398C9.15856 13.221 9.0004 13.6023 9 14V20H4.5V9.54653L12 3.70403L19.5 9.55403V20H15Z" fill="#006877"/>
</svg>
