<svg width="30" height="30" viewBox="0 0 30 30" fill="none" xmlns="http://www.w3.org/2000/svg">
<circle cx="15" cy="15" r="15" fill="black" fill-opacity="0.6"/>
<path fill-rule="evenodd" clip-rule="evenodd" d="M14.672 8.12301L10.399 11.84H7C6.86739 11.84 6.74021 11.8927 6.64645 11.9865C6.55268 12.0802 6.5 12.2074 6.5 12.34V17.54C6.5 17.6726 6.55268 17.7998 6.64645 17.8936C6.74021 17.9873 6.86739 18.04 7 18.04H10.295L14.67 21.875C14.7423 21.9385 14.8313 21.9798 14.9264 21.9939C15.0215 22.0081 15.1187 21.9945 15.2063 21.9548C15.2939 21.9151 15.3682 21.851 15.4203 21.7702C15.4724 21.6893 15.5001 21.5952 15.5 21.499V8.49901C15.4999 8.40313 15.4723 8.30928 15.4204 8.22867C15.3685 8.14806 15.2945 8.08407 15.2072 8.04434C15.1199 8.00461 15.0231 7.9908 14.9282 8.00457C14.8333 8.01834 14.7444 8.06011 14.672 8.12301ZM10.884 12.745L14.5 9.59801V20.397L11.014 17.34C10.9751 17.2509 10.9111 17.175 10.8297 17.1217C10.7484 17.0685 10.6532 17.0401 10.556 17.04H7.5V12.84H10.394C10.4768 12.8692 10.5659 12.8757 10.6521 12.8588C10.7382 12.8419 10.8183 12.8033 10.884 12.745Z" fill="white"/>
<path d="M18.3262 17.8801C18.2254 17.9665 18.0944 18.0094 17.962 17.9993C17.8296 17.9892 17.7066 17.9268 17.6202 17.8261C17.5337 17.7253 17.4908 17.5943 17.501 17.4619C17.5111 17.3295 17.5734 17.2065 17.6742 17.1201C17.7142 17.0871 17.7532 17.0501 17.7912 17.0101C17.9482 16.8481 18.0862 16.6441 18.1982 16.4081C18.3932 15.9991 18.5002 15.5121 18.5002 15.0001C18.5002 14.1831 18.2272 13.4421 17.7912 12.9901C17.7539 12.9516 17.7149 12.9149 17.6742 12.8801C17.5734 12.7936 17.5111 12.6707 17.501 12.5383C17.4908 12.4058 17.5337 12.2748 17.6202 12.1741C17.7066 12.0733 17.8296 12.011 17.962 12.0008C18.0944 11.9907 18.2254 12.0336 18.3262 12.1201C18.3902 12.1761 18.4512 12.2341 18.5112 12.2961C19.1352 12.9431 19.5002 13.9351 19.5002 15.0001C19.5002 15.6601 19.3602 16.2931 19.1012 16.8381C18.9442 17.1681 18.7452 17.4621 18.5112 17.7041C18.4522 17.7652 18.3905 17.8236 18.3262 17.8791V17.8801Z" fill="white"/>
<path d="M19.2739 20.9181C19.1631 20.9863 19.03 21.0086 18.9029 20.9803C18.7759 20.952 18.6649 20.8753 18.5936 20.7664C18.5222 20.6576 18.4961 20.5252 18.5208 20.3974C18.5455 20.2696 18.6191 20.1565 18.7259 20.0821C19.2351 19.7475 19.6929 19.3405 20.0849 18.8741C20.473 18.411 20.7904 17.8931 21.0269 17.3371C21.3409 16.598 21.5018 15.803 21.4999 15.0001C21.4994 14.3991 21.4094 13.8015 21.2329 13.2271C21.0557 12.6504 20.7917 12.1041 20.4499 11.6071C20.1075 11.1051 19.6923 10.6568 19.2179 10.2771C19.0598 10.1495 18.8956 10.0297 18.7259 9.91806C18.6191 9.84365 18.5455 9.73054 18.5208 9.60274C18.4961 9.47495 18.5222 9.34256 18.5936 9.2337C18.6649 9.12485 18.7759 9.04811 18.9029 9.01979C19.03 8.99147 19.1631 9.01381 19.2739 9.08206C20.0622 9.59962 20.7421 10.2657 21.2759 11.0431C21.6721 11.624 21.9798 12.2607 22.1889 12.9321C22.3962 13.6018 22.501 14.299 22.4999 15.0001C22.4998 15.701 22.3949 16.3981 22.1889 17.0681C21.912 17.9663 21.4569 18.7996 20.8509 19.5181C20.3967 20.0595 19.8653 20.5312 19.2739 20.9181Z" fill="white"/>
</svg>
