<svg width="7" height="14" viewBox="0 0 7 14" fill="none" xmlns="http://www.w3.org/2000/svg">
<path d="M3.33333 13.3333C2.405 13.3333 1.61722 13.01 0.97 12.3633C0.322778 11.7167 -0.000554841 10.9289 7.14695e-07 10C7.14695e-07 9.39722 0.151112 8.845 0.453334 8.34333C0.755556 7.84167 1.16 7.43222 1.66667 7.115V1.66667C1.66667 1.19667 1.82694 0.801389 2.1475 0.480833C2.46806 0.160278 2.86333 0 3.33333 0C3.80333 0 4.19861 0.160278 4.51917 0.480833C4.83972 0.801389 5 1.19667 5 1.66667V7.115C5.50667 7.43278 5.90833 7.8425 6.205 8.34417C6.50222 8.84528 6.65611 9.39722 6.66667 10C6.65556 10.9283 6.32667 11.7161 5.68 12.3633C5.03333 13.0106 4.25111 13.3339 3.33333 13.3333ZM2.5 5H4.16667V1.66667C4.16667 1.43056 4.08667 1.2325 3.92667 1.0725C3.76667 0.9125 3.56889 0.832778 3.33333 0.833333C3.09722 0.833333 2.89917 0.913333 2.73917 1.07333C2.57917 1.23333 2.49945 1.43111 2.5 1.66667V5Z" fill="black"/>
</svg>
