<svg width="21" height="18" viewBox="0 0 21 18" fill="none" xmlns="http://www.w3.org/2000/svg">
<path d="M4.596 0C4.526 2.616 2.546 4.596 0 4.596V6.01C3.466 6.081 6.152 3.394 6.01 0H4.596ZM0 1.626V3.041C1.768 2.97 3.04 1.697 3.04 0H1.628C1.56421 0.40851 1.37223 0.786173 1.07978 1.07844C0.78733 1.37071 0.409549 1.56246 0.00100005 1.626H0ZM20.032 4.596C17.486 4.596 15.506 2.616 15.436 0H14.021C13.88 3.394 16.567 6.081 20.031 6.01V4.596H20.032ZM20.032 3.041V1.626C19.6235 1.56246 19.2457 1.37071 18.9532 1.07844C18.6608 0.786173 18.4688 0.40851 18.405 0H16.991C16.991 1.697 18.264 2.97 20.031 3.04L20.032 3.041ZM17.016 18V10H20.016L10.016 1L0.016 10H3.016V18H17.016Z" fill="black"/>
</svg>
