<svg width="20" height="20" viewBox="0 0 20 20" fill="none" xmlns="http://www.w3.org/2000/svg">
<path d="M7.4322 5.36807C7.35803 5.44208 7.2992 5.52999 7.25905 5.62677C7.21891 5.72355 7.19824 5.82729 7.19824 5.93207C7.19824 6.03684 7.21891 6.14059 7.25905 6.23737C7.2992 6.33414 7.35803 6.42206 7.4322 6.49607L10.5362 9.60007L7.4322 12.7041C7.35813 12.7781 7.29938 12.8661 7.2593 12.9628C7.21921 13.0596 7.19858 13.1633 7.19858 13.2681C7.19858 13.3728 7.21921 13.4765 7.2593 13.5733C7.29938 13.6701 7.35813 13.758 7.4322 13.8321C7.50626 13.9061 7.59419 13.9649 7.69096 14.005C7.78773 14.0451 7.89145 14.0657 7.9962 14.0657C8.10094 14.0657 8.20466 14.0451 8.30143 14.005C8.3982 13.9649 8.48613 13.9061 8.5602 13.8321L12.2322 10.1601C12.3064 10.0861 12.3652 9.99814 12.4053 9.90137C12.4455 9.80459 12.4662 9.70084 12.4662 9.59607C12.4662 9.49129 12.4455 9.38755 12.4053 9.29077C12.3652 9.19399 12.3064 9.10608 12.2322 9.03207L8.5602 5.36007C8.2562 5.05607 7.7442 5.05607 7.4322 5.36807Z" fill="#101010"/>
</svg>
