<svg width="8" height="14" viewBox="0 0 8 14" fill="none" xmlns="http://www.w3.org/2000/svg">
<path d="M3.99984 13.6667C3.0715 13.6667 2.28373 13.3434 1.6365 12.6967C0.989282 12.05 0.665949 11.2623 0.666505 10.3334C0.666505 9.7306 0.817615 9.17837 1.11984 8.67671C1.42206 8.17504 1.8265 7.7656 2.33317 7.44837V2.00004C2.33317 1.53004 2.49345 1.13476 2.814 0.814207C3.13456 0.493652 3.52984 0.333374 3.99984 0.333374C4.46984 0.333374 4.86512 0.493652 5.18567 0.814207C5.50623 1.13476 5.6665 1.53004 5.6665 2.00004V7.44837C6.17317 7.76615 6.57484 8.17587 6.8715 8.67754C7.16873 9.17865 7.32262 9.7306 7.33317 10.3334C7.32206 11.2617 6.99317 12.0495 6.3465 12.6967C5.69984 13.3439 4.91762 13.6673 3.99984 13.6667ZM3.1665 5.33337H4.83317V2.00004C4.83317 1.76393 4.75317 1.56587 4.59317 1.40587C4.43317 1.24587 4.23539 1.16615 3.99984 1.16671C3.76373 1.16671 3.56567 1.24671 3.40567 1.40671C3.24567 1.56671 3.16595 1.76449 3.1665 2.00004V5.33337Z" fill="#FAFAFA"/>
</svg>
