<svg width="273" height="191" viewBox="0 0 273 191" fill="none" xmlns="http://www.w3.org/2000/svg">
<g clip-path="url(#clip0_42_3117)">
<path d="M31.8786 186.003L36.441 186.003L38.6113 168.411L31.878 168.411L31.8786 186.003Z" fill="#FFB8B8"/>
<path d="M30.7152 190.425L45.4258 190.424V190.238C45.4257 188.72 44.8224 187.264 43.7486 186.191C42.6748 185.117 41.2185 184.514 39.7 184.514H39.6996L30.7149 184.514L30.7152 190.425Z" fill="#2F2E41"/>
<path d="M11.7435 174.79L14.7048 178.26L29.5 168.491L25.1292 163.371L11.7435 174.79Z" fill="#FFB8B8"/>
<path d="M7.62376 176.775L17.1726 187.962L17.3142 187.842C18.4693 186.856 19.1855 185.452 19.3054 183.939C19.4252 182.426 18.9388 180.927 17.9532 179.772L17.953 179.771L12.1208 172.939L7.62376 176.775Z" fill="#2F2E41"/>
<path d="M64.2731 99.4871L65.6934 112.581L8.28475 111.762L33.3209 70.9795L53.7626 70.2455L64.2731 99.4871Z" fill="#2F2E41"/>
<path opacity="0.28" d="M64.2731 99.4871L65.6934 112.581L8.28475 111.762L33.3209 70.9795L53.7626 70.2455L64.2731 99.4871Z" fill="black"/>
<path d="M52.984 101.735L55.0107 113.716V124.424L38.6699 129.757C38.6699 129.757 40.5829 171.352 38.0326 174.001L38.0953 180.397L30.9666 180.721L30.9085 176.22L27.8862 142.577L26.1061 117.876L28.9922 99.1492L52.984 101.735Z" fill="#2F2E41"/>
<path d="M40.3241 112.048L55.0109 124.424C55.0109 124.424 55.8704 146.754 53.6876 149.373C51.8128 151.622 27.429 171.022 27.429 171.022C27.429 171.022 23.0953 174.996 20.6667 175.06C18.2381 175.123 15.4133 170.031 15.4133 170.031L21.0379 165.758C21.0379 165.758 35.6093 152.161 39.9358 146.754C41.682 144.572 41.682 144.354 41.682 144.354L41.0856 135.279L35.0829 118.437L40.3241 112.048Z" fill="#2F2E41"/>
<path d="M55.9171 52.7648L62.2493 52.1798L67.993 53.1367L80.1552 53.1406L81.1914 61.953L70.0924 64.436L67.3877 63.1108L56.1131 67.4053L55.9171 52.7648Z" fill="#2F2E41"/>
<path d="M48.3534 52.7372C48.3534 52.7372 34.9147 51.4784 31.8587 53.8788C28.8028 56.2793 22.2543 103.852 22.2543 103.852L48.3534 105.324L53.0322 102.106L51.7041 78.3559L48.3534 52.7372Z" fill="#CCCCCC"/>
<path d="M44.2516 52.4408L59.0757 52.766L72.8965 115.199L61.9822 117.6L44.2516 52.4408Z" fill="#2F2E41"/>
<path d="M33.7137 51.9131L22.0366 55.5668L22.6999 81.2185L8.28451 111.887L25.2309 113.672L38.626 80.5554L33.7137 51.9131Z" fill="#2F2E41"/>
<path d="M14.4586 115.002C14.0492 114.642 13.7238 114.196 13.5054 113.697C13.2869 113.197 13.1807 112.656 13.1941 112.111C13.2076 111.566 13.3405 111.03 13.5834 110.542C13.8262 110.054 14.1732 109.625 14.5999 109.285L12.2508 101.092L16.8827 98.4509L20.0376 110.067C20.5608 110.822 20.789 111.742 20.679 112.653C20.569 113.565 20.1284 114.404 19.4407 115.012C18.753 115.621 17.866 115.956 16.9478 115.954C16.0295 115.952 15.1438 115.613 14.4586 115.002Z" fill="#FFB8B8"/>
<path d="M28.8027 56.2792L21.8934 55.6801C21.8934 55.6801 15.6904 62.1658 14.2792 67.1876C12.8681 72.2094 11.3401 87.9214 11.3401 87.9214L11.9775 110.907L20.0539 105.423L20.5956 85.6533L28.8027 56.2792Z" fill="#2F2E41"/>
<path d="M30.4704 44.7264C27.8758 39.9813 29.6201 34.032 34.3665 31.4381C39.1129 28.8442 45.0639 30.5881 47.6585 35.3331C50.2531 40.0782 48.5088 46.0276 43.7624 48.6214C39.016 51.2153 33.065 49.4714 30.4704 44.7264Z" fill="#FFB8B8"/>
<path d="M40.1556 35.942C41.4407 35.6451 42.7747 35.9741 44.0762 36.1873C45.3778 36.4006 46.8121 36.4709 47.9131 35.7449C48.7261 35.2087 49.226 34.3217 49.6955 33.4685C49.8913 33.1638 50.0219 32.8218 50.0789 32.4641C50.1341 31.8331 49.7326 31.2574 49.3063 30.7889C47.3258 28.6125 44.4316 27.4213 41.513 27.0429C39.106 26.6843 36.6469 26.9845 34.3969 27.9117C32.1814 28.8831 30.2769 30.6621 29.4058 32.9185C29.0046 34.0734 28.7541 35.2751 28.6604 36.494C28.5288 37.3909 28.5119 38.3008 28.6101 39.2019C28.7274 39.8699 28.9031 40.5263 29.135 41.1636L30.5779 45.5193C30.6817 45.9309 30.8755 46.3144 31.1453 46.6421C31.284 46.8026 31.4709 46.9139 31.6781 46.9593C31.8854 47.0047 32.1017 46.9817 32.2948 46.8939C32.1793 46.4208 32.1617 45.9291 32.243 45.4489C32.2882 45.2096 32.404 44.9893 32.5755 44.8164C32.747 44.6435 32.9664 44.5259 33.2053 44.4788C33.7372 44.4223 34.1915 44.8345 34.696 45.012C34.9269 45.0804 35.169 45.1027 35.4085 45.0776C35.648 45.0525 35.8802 44.9804 36.0919 44.8656C36.3036 44.7508 36.4905 44.5954 36.6421 44.4083C36.7937 44.2212 36.907 44.0061 36.9754 43.7753C36.9892 43.7288 37.0012 43.6818 37.0113 43.6342C37.0909 43.1363 36.9572 42.6032 37.146 42.1355C37.3672 41.5876 37.9538 41.3006 38.3944 40.9069C38.7966 40.5359 39.0844 40.0578 39.2241 39.5289C39.3637 39 39.3495 38.4423 39.1829 37.9212C39.065 37.5587 38.7318 37.3939 38.7984 36.9775C38.8859 36.4311 39.6916 36.0492 40.1556 35.942Z" fill="#2F2E41"/>
<path d="M149.047 77.3324H272.7V0H149.047V77.3324Z" fill="white"/>
<path d="M149.047 77.3324H272.7V0H149.047V77.3324ZM272.136 76.7679H149.611V0.564471H272.136V76.7679Z" fill="#3F3D56"/>
<path d="M164.15 184.441H234.729V107.108H164.15V184.441Z" fill="white"/>
<path d="M164.15 184.441H234.729V107.108H164.15V184.441ZM234.164 183.876H164.715V107.673H234.164V183.876Z" fill="#3F3D56"/>
<path d="M173.749 177.137H188.43V177.732H173.749V177.137Z" fill="#3F3D56"/>
<path d="M173.749 178.922H188.43V179.517H173.749V178.922Z" fill="#3F3D56"/>
<path d="M173.749 180.707H188.43V181.302H173.749V180.707Z" fill="#3F3D56"/>
<path d="M199.439 120.938V127.147C195.754 127.147 192.152 128.239 189.088 130.286C186.024 132.333 183.635 135.242 182.225 138.646C180.815 142.05 180.446 145.795 181.165 149.408C181.884 153.022 183.658 156.341 186.264 158.946L181.872 163.337C178.398 159.863 176.032 155.438 175.073 150.62C174.115 145.802 174.607 140.808 176.487 136.27C178.367 131.732 181.552 127.853 185.637 125.123C189.723 122.394 194.526 120.938 199.439 120.938Z" fill="#E6E6E6"/>
<path d="M181.872 163.337L186.264 158.946C189.45 162.131 193.682 164.055 198.177 164.359C202.673 164.664 207.126 163.33 210.712 160.603L214.472 165.548C209.689 169.182 203.751 170.961 197.757 170.554C191.763 170.147 186.12 167.583 181.872 163.337Z" fill="#575A89"/>
<path d="M218.072 145.774C218.072 143.328 217.59 140.906 216.654 138.646C215.718 136.386 214.345 134.332 212.615 132.603C210.885 130.873 208.831 129.501 206.57 128.565C204.309 127.629 201.886 127.147 199.44 127.147V120.938C204.64 120.938 209.71 122.569 213.934 125.603C218.158 128.636 221.323 132.918 222.983 137.845C224.644 142.772 224.715 148.096 223.188 153.066C221.661 158.037 218.613 162.402 214.472 165.548L210.713 160.603C213.002 158.868 214.857 156.625 216.134 154.053C217.411 151.48 218.074 148.646 218.072 145.774Z" fill="#FFC000"/>
<path d="M59.694 136.461H130.272V59.1282H59.694V136.461Z" fill="white"/>
<path d="M59.694 136.461H130.272V59.1282H59.694V136.461ZM129.708 135.896H60.2587V59.6926H129.708V135.896Z" fill="#3F3D56"/>
<path d="M107.405 106.403H120.109V126.724H107.405V106.403Z" fill="#575A89"/>
<path d="M89.0547 92.5731H101.759V126.724H89.0547V92.5731Z" fill="#E6E6E6"/>
<path d="M70.7051 76.4857H83.4092V126.724H70.7051V76.4857Z" fill="#FFC000"/>
<path d="M66.4698 127.288H123.497V68.3009H122.933V126.724H66.4698V127.288Z" fill="#3F3D56"/>
<path d="M80.2191 61.187C78.0716 61.187 76.3307 59.4466 76.3307 57.2997C76.3307 55.1529 78.0716 53.4125 80.2191 53.4125C82.3665 53.4125 84.1074 55.1529 84.1074 57.2997C84.1074 59.4466 82.3665 61.187 80.2191 61.187Z" fill="#FFB8B8"/>
<path d="M0.324657 190.8H60.9182C61.0041 190.8 61.0865 190.766 61.1473 190.705C61.208 190.644 61.2422 190.562 61.2422 190.476C61.2422 190.39 61.208 190.308 61.1473 190.247C61.0865 190.186 61.0041 190.152 60.9182 190.152H0.324657C0.23872 190.152 0.156307 190.186 0.0955391 190.247C0.034771 190.308 0.000629425 190.39 0.000629425 190.476C0.000629425 190.562 0.034771 190.644 0.0955391 190.705C0.156307 190.766 0.23872 190.8 0.324657 190.8Z" fill="#CCCCCC"/>
<path d="M166.22 61.1592H255.528C255.602 61.1592 255.673 61.1297 255.726 61.0773C255.778 61.0249 255.808 60.9538 255.808 60.8797V18.0862C255.808 18.0121 255.778 17.941 255.726 17.8886C255.673 17.8362 255.602 17.8068 255.528 17.8068C255.454 17.8068 255.383 17.8362 255.33 17.8886C255.278 17.941 255.249 18.0121 255.249 18.0862V60.6003H166.22C166.183 60.6002 166.146 60.6073 166.112 60.6213C166.078 60.6353 166.048 60.6559 166.021 60.6818C165.995 60.7078 165.975 60.7386 165.961 60.7726C165.947 60.8066 165.939 60.843 165.939 60.8797C165.939 60.9165 165.947 60.9529 165.961 60.9869C165.975 61.0209 165.995 61.0517 166.021 61.0777C166.048 61.1036 166.078 61.1242 166.112 61.1382C166.146 61.1521 166.183 61.1593 166.22 61.1592Z" fill="#3F3D56"/>
<path d="M236.447 58.0856H244.57C244.79 58.0853 245.001 57.9979 245.156 57.8424C245.312 57.6869 245.399 57.4761 245.399 57.2562V46.0618C245.399 45.8419 245.312 45.6311 245.156 45.4756C245.001 45.3201 244.79 45.2327 244.57 45.2324H236.447C236.227 45.2327 236.016 45.3201 235.86 45.4756C235.705 45.6311 235.617 45.8419 235.617 46.0618V57.2562C235.617 57.4761 235.705 57.6869 235.86 57.8424C236.016 57.9979 236.227 58.0853 236.447 58.0856Z" fill="#FFC000"/>
<path d="M221.633 58.0856H229.756C229.976 58.0854 230.187 57.9979 230.343 57.8424C230.498 57.6869 230.586 57.4761 230.586 57.2562V35.444C230.586 35.2241 230.498 35.0133 230.343 34.8578C230.187 34.7023 229.976 34.6149 229.756 34.6146H221.633C221.413 34.6149 221.202 34.7023 221.047 34.8578C220.891 35.0133 220.804 35.2241 220.804 35.444V57.2562C220.804 57.4761 220.891 57.6869 221.047 57.8424C221.202 57.9979 221.413 58.0854 221.633 58.0856Z" fill="#FFC000"/>
<path d="M206.82 58.0856H214.943C215.163 58.0853 215.374 57.9979 215.529 57.8424C215.685 57.6869 215.772 57.4761 215.772 57.2562V46.0618C215.772 45.8419 215.685 45.6311 215.529 45.4756C215.374 45.3201 215.163 45.2327 214.943 45.2324H206.82C206.6 45.2327 206.389 45.3201 206.233 45.4756C206.078 45.6311 205.99 45.8419 205.99 46.0618V57.2562C205.99 57.4761 206.078 57.6869 206.233 57.8424C206.389 57.9979 206.6 58.0853 206.82 58.0856Z" fill="#FFC000"/>
<path d="M192.006 58.0856H200.129C200.344 58.0903 200.552 58.0095 200.708 57.8611C200.863 57.7127 200.954 57.5087 200.959 57.2938V31.2152C200.954 31.0003 200.863 30.7964 200.708 30.6479C200.552 30.4995 200.344 30.4188 200.129 30.4234H192.006C191.791 30.4188 191.583 30.4995 191.428 30.6479C191.272 30.7964 191.182 31.0003 191.177 31.2152V57.2938C191.182 57.5087 191.272 57.7127 191.428 57.8611C191.583 58.0095 191.791 58.0903 192.006 58.0856Z" fill="#FFC000"/>
<path d="M177.194 58.0856H185.317C185.537 58.0854 185.748 57.9979 185.903 57.8424C186.059 57.687 186.146 57.4761 186.146 57.2562V23.7085C186.146 23.4886 186.059 23.2778 185.903 23.1223C185.748 22.9669 185.537 22.8794 185.317 22.8792H177.194C176.974 22.8794 176.763 22.9669 176.607 23.1223C176.452 23.2778 176.364 23.4886 176.364 23.7085V57.2562C176.364 57.4761 176.452 57.687 176.607 57.8424C176.763 57.9979 176.974 58.0854 177.194 58.0856Z" fill="#FFC000"/>
<path d="M240.508 41.8795C239.581 41.8795 238.831 41.1289 238.831 40.203C238.831 39.2771 239.581 38.5265 240.508 38.5265C241.434 38.5265 242.185 39.2771 242.185 40.203C242.185 41.1289 241.434 41.8795 240.508 41.8795Z" fill="#3F3D56"/>
<path d="M225.695 30.9823C224.769 30.9823 224.018 30.2317 224.018 29.3058C224.018 28.3799 224.769 27.6293 225.695 27.6293C226.621 27.6293 227.372 28.3799 227.372 29.3058C227.372 30.2317 226.621 30.9823 225.695 30.9823Z" fill="#3F3D56"/>
<path d="M210.882 41.8795C209.955 41.8795 209.205 41.1289 209.205 40.203C209.205 39.2771 209.955 38.5265 210.882 38.5265C211.808 38.5265 212.559 39.2771 212.559 40.203C212.559 41.1289 211.808 41.8795 210.882 41.8795Z" fill="#3F3D56"/>
<path d="M196.068 25.6733C195.142 25.6733 194.391 24.9227 194.391 23.9968C194.391 23.0709 195.142 22.3203 196.068 22.3203C196.994 22.3203 197.745 23.0709 197.745 23.9968C197.745 24.9227 196.994 25.6733 196.068 25.6733Z" fill="#3F3D56"/>
<path d="M181.255 19.5261C180.329 19.5261 179.578 18.7755 179.578 17.8496C179.578 16.9237 180.329 16.1731 181.255 16.1731C182.181 16.1731 182.932 16.9237 182.932 17.8496C182.932 18.7755 182.181 19.5261 181.255 19.5261Z" fill="#3F3D56"/>
<path d="M210.847 40.5785L225.695 29.46L240.341 40.4266L240.676 39.9792L225.695 28.7616L210.917 39.8273L196.232 23.7616L196.173 23.7376L181.36 17.7706L181.151 18.2893L195.905 24.2322L210.847 40.5785Z" fill="#3F3D56"/>
</g>
<defs>
<clipPath id="clip0_42_3117">
<rect width="272.7" height="190.8" fill="white" transform="matrix(-1 0 0 1 272.7 0)"/>
</clipPath>
</defs>
</svg>
