<svg width="24" height="25" viewBox="0 0 24 25" fill="none" xmlns="http://www.w3.org/2000/svg">
<g clip-path="url(#clip0_73_2722)">
<path d="M10 5.83337H16V7.16671H10V5.83337Z" fill="#006877"/>
<path d="M10 8.5H16V9.83333H10V8.5Z" fill="#006877"/>
<path d="M10 11.1666H16V12.5H10V11.1666Z" fill="#006877"/>
<path d="M10 13.8334H16V15.1667H10V13.8334Z" fill="#006877"/>
<path d="M10 16.5H16V17.8333H10V16.5Z" fill="#006877"/>
<path d="M7.3335 5.83337H8.66683V7.16671H7.3335V5.83337Z" fill="#006877"/>
<path d="M7.3335 8.5H8.66683V9.83333H7.3335V8.5Z" fill="#006877"/>
<path d="M7.3335 11.1666H8.66683V12.5H7.3335V11.1666Z" fill="#006877"/>
<path d="M7.3335 13.8334H8.66683V15.1667H7.3335V13.8334Z" fill="#006877"/>
<path d="M7.3335 16.5H8.66683V17.8333H7.3335V16.5Z" fill="#006877"/>
<path d="M18.6667 1.83337H5.33333C4.97971 1.83337 4.64057 1.97385 4.39052 2.2239C4.14048 2.47395 4 2.81309 4 3.16671V21.8334C4 22.187 4.14048 22.5261 4.39052 22.7762C4.64057 23.0262 4.97971 23.1667 5.33333 23.1667H18.6667C19.0203 23.1667 19.3594 23.0262 19.6095 22.7762C19.8595 22.5261 20 22.187 20 21.8334V3.16671C20 2.81309 19.8595 2.47395 19.6095 2.2239C19.3594 1.97385 19.0203 1.83337 18.6667 1.83337ZM18.6667 21.8334H5.33333V3.16671H18.6667V21.8334Z" fill="#006877"/>
</g>
<defs>
<clipPath id="clip0_73_2722">
<rect width="24" height="24" fill="white" transform="translate(0 0.5)"/>
</clipPath>
</defs>
</svg>
