<svg width="17" height="10" viewBox="0 0 17 10" fill="none" xmlns="http://www.w3.org/2000/svg">
<g opacity="0.2">
<path d="M13.5 1.5H2.5C1.94772 1.5 1.5 1.94772 1.5 2.5V8.5C1.5 9.05228 1.94772 9.5 2.5 9.5H13.5C14.0523 9.5 14.5 9.05228 14.5 8.5V2.5C14.5 1.94772 14.0523 1.5 13.5 1.5Z" fill="black"/>
<path d="M16.5 3H15.5C15.2239 3 15 3.22386 15 3.5V7.5C15 7.77614 15.2239 8 15.5 8H16.5C16.7761 8 17 7.77614 17 7.5V3.5C17 3.22386 16.7761 3 16.5 3Z" fill="black"/>
</g>
<path d="M16 2H15C14.7239 2 14.5 2.22386 14.5 2.5V6.5C14.5 6.77614 14.7239 7 15 7H16C16.2761 7 16.5 6.77614 16.5 6.5V2.5C16.5 2.22386 16.2761 2 16 2Z" fill="black"/>
<path d="M2.5 2H5V7H2.5V2ZM5.75 2H8.25V7H5.75V2ZM9 2H11.5V7H9V2Z" fill="black"/>
<path fill-rule="evenodd" clip-rule="evenodd" d="M12.5 0H1.5C1.10218 0 0.720644 0.158035 0.43934 0.43934C0.158035 0.720644 0 1.10218 0 1.5V7.5C0 7.89782 0.158035 8.27936 0.43934 8.56066C0.720644 8.84196 1.10218 9 1.5 9H12.5C12.8978 9 13.2794 8.84196 13.5607 8.56066C13.842 8.27936 14 7.89782 14 7.5V1.5C14 1.10218 13.842 0.720644 13.5607 0.43934C13.2794 0.158035 12.8978 0 12.5 0ZM1 1.5C1 1.36739 1.05268 1.24021 1.14645 1.14645C1.24021 1.05268 1.36739 1 1.5 1H12.5C12.6326 1 12.7598 1.05268 12.8536 1.14645C12.9473 1.24021 13 1.36739 13 1.5V7.5C13 7.63261 12.9473 7.75979 12.8536 7.85355C12.7598 7.94732 12.6326 8 12.5 8H1.5C1.36739 8 1.24021 7.94732 1.14645 7.85355C1.05268 7.75979 1 7.63261 1 7.5V1.5Z" fill="black"/>
</svg>
