<svg width="32" height="32" viewBox="0 0 32 32" fill="none" xmlns="http://www.w3.org/2000/svg">
<g id="material-symbols:add-circle-rounded">
<path id="Vector" d="M15.9998 22.6667C16.3776 22.6667 16.6945 22.5387 16.9505 22.2827C17.2056 22.0276 17.3332 21.7111 17.3332 21.3334V17.3334H21.3665C21.7443 17.3334 22.0554 17.2054 22.2998 16.9494C22.5443 16.6942 22.6665 16.3778 22.6665 16C22.6665 15.6222 22.5385 15.3054 22.2825 15.0494C22.0274 14.7942 21.7109 14.6667 21.3332 14.6667H17.3332V10.6334C17.3332 10.2556 17.2056 9.94446 16.9505 9.70002C16.6945 9.45558 16.3776 9.33335 15.9998 9.33335C15.6221 9.33335 15.3056 9.46091 15.0505 9.71602C14.7945 9.97202 14.6665 10.2889 14.6665 10.6667V14.6667H10.6332C10.2554 14.6667 9.94428 14.7942 9.69984 15.0494C9.45539 15.3054 9.33317 15.6222 9.33317 16C9.33317 16.3778 9.46073 16.6942 9.71584 16.9494C9.97184 17.2054 10.2887 17.3334 10.6665 17.3334H14.6665V21.3667C14.6665 21.7445 14.7945 22.0556 15.0505 22.3C15.3056 22.5445 15.6221 22.6667 15.9998 22.6667ZM15.9998 29.3334C14.1554 29.3334 12.4221 28.9831 10.7998 28.2827C9.17762 27.5831 7.7665 26.6334 6.5665 25.4334C5.3665 24.2334 4.41673 22.8222 3.71717 21.2C3.01673 19.5778 2.6665 17.8445 2.6665 16C2.6665 14.1556 3.01673 12.4222 3.71717 10.8C4.41673 9.1778 5.3665 7.76669 6.5665 6.56669C7.7665 5.36669 9.17762 4.41646 10.7998 3.71602C12.4221 3.01646 14.1554 2.66669 15.9998 2.66669C17.8443 2.66669 19.5776 3.01646 21.1998 3.71602C22.8221 4.41646 24.2332 5.36669 25.4332 6.56669C26.6332 7.76669 27.5829 9.1778 28.2825 10.8C28.9829 12.4222 29.3332 14.1556 29.3332 16C29.3332 17.8445 28.9829 19.5778 28.2825 21.2C27.5829 22.8222 26.6332 24.2334 25.4332 25.4334C24.2332 26.6334 22.8221 27.5831 21.1998 28.2827C19.5776 28.9831 17.8443 29.3334 15.9998 29.3334Z" fill="#101010"/>
</g>
</svg>
