<svg width="166" height="83" viewBox="0 0 166 83" fill="none" xmlns="http://www.w3.org/2000/svg">
<g clip-path="url(#clip0_52_2542)">
<path d="M45.3234 67.8842C49.8299 67.8842 53.4831 64.2189 53.4831 59.6974C53.4831 55.176 49.8299 51.5106 45.3234 51.5106C40.8168 51.5106 37.1636 55.176 37.1636 59.6974C37.1636 64.2189 40.8168 67.8842 45.3234 67.8842Z" fill="#E4E4E4"/>
<path opacity="0.2" d="M39.2986 54.2292C38.5374 56.0156 38.4342 58.0152 39.0073 59.8708C39.5803 61.7265 40.7924 63.3172 42.4268 64.3588C44.0613 65.4004 46.0116 65.8249 47.9293 65.5566C49.8471 65.2882 51.6072 64.3445 52.8952 62.8939C52.4302 63.9853 51.7344 64.9622 50.8557 65.7569C49.9771 66.5516 48.9368 67.1452 47.8069 67.4965C46.6769 67.8478 45.4844 67.9485 44.3118 67.7914C43.1392 67.6344 42.0147 67.2235 41.0162 66.5871C40.0176 65.9508 39.1689 65.1042 38.5288 64.1061C37.8887 63.108 37.4725 61.9822 37.3092 60.8067C37.1458 59.6312 37.2391 58.4341 37.5826 57.2984C37.9261 56.1626 38.5116 55.1154 39.2986 54.2292Z" fill="black"/>
<path d="M45.346 59.6975H45.3683L45.7718 82.9084H44.9199L45.346 59.6975Z" fill="#3F3D56"/>
<path d="M28.8139 52.617C37.8999 52.617 45.2655 45.227 45.2655 36.1109C45.2655 26.9949 37.8999 19.6049 28.8139 19.6049C19.7279 19.6049 12.3623 26.9949 12.3623 36.1109C12.3623 45.227 19.7279 52.617 28.8139 52.617Z" fill="#E4E4E4"/>
<path opacity="0.2" d="M16.6663 25.0862C15.1317 28.6877 14.9235 32.7193 16.0789 36.4606C17.2344 40.202 19.6781 43.4092 22.9734 45.5092C26.2688 47.6092 30.201 48.4652 34.0674 47.9241C37.9339 47.3831 41.4826 45.4803 44.0795 42.5557C43.1421 44.7561 41.739 46.7257 39.9676 48.328C38.1962 49.9304 36.0987 51.1271 33.8205 51.8354C31.5424 52.5437 29.1379 52.7466 26.7738 52.43C24.4097 52.1134 22.1425 51.2849 20.1292 50.0019C18.1159 48.7189 16.4048 47.0121 15.1142 44.9997C13.8237 42.9873 12.9846 40.7175 12.6552 38.3475C12.3258 35.9775 12.5139 33.5639 13.2065 31.2741C13.8991 28.9842 15.0796 26.8728 16.6663 25.0862Z" fill="black"/>
<path d="M28.8592 36.1108H28.9044L29.718 82.9084H28.0005L28.8592 36.1108Z" fill="#3F3D56"/>
<path d="M137.28 58.6863H61.8726V81.1142H137.28V58.6863Z" fill="#F0F0F0"/>
<path d="M103.973 63.3214H95.1802V81.1142H103.973V63.3214Z" fill="#CACACA"/>
<path d="M132.884 32.2214H66.269V52.8551H132.884V32.2214Z" fill="#F0F0F0"/>
<path d="M139.637 33.4923H59.5153C59.3816 33.4923 59.2509 33.4522 59.14 33.3771C59.0292 33.3019 58.9432 33.1953 58.8933 33.0708C58.8433 32.9463 58.8316 32.8097 58.8596 32.6784C58.8877 32.5472 58.9542 32.4274 59.0506 32.3344L80.9479 11.2169V2.01851C80.9481 1.84013 81.0188 1.6691 81.1445 1.54297C81.2703 1.41683 81.4407 1.34588 81.6185 1.34567H85.9402C86.118 1.34587 86.2885 1.41682 86.4142 1.54296C86.54 1.6691 86.6107 1.84012 86.6109 2.01851V5.75562L88.2648 4.16055C90.9713 1.55037 94.5622 0.0646879 98.3158 0.00206313C102.069 -0.0605616 105.707 1.30452 108.499 3.82296L140.085 32.3191C140.186 32.4101 140.257 32.5297 140.289 32.662C140.321 32.7943 140.312 32.9332 140.263 33.0603C140.214 33.1874 140.129 33.2967 140.017 33.3739C139.905 33.451 139.773 33.4923 139.637 33.4923Z" fill="#CACACA"/>
<path d="M83.8542 37.4546C84.4119 37.4546 84.9642 37.5648 85.4795 37.779C85.9948 37.9931 86.463 38.307 86.8574 38.7027C87.2518 39.0984 87.5646 39.5682 87.7781 40.0852C87.9915 40.6022 88.1014 41.1563 88.1014 41.7159V47.4724H79.6069V41.7159C79.6069 41.1563 79.7168 40.6022 79.9302 40.0852C80.1437 39.5682 80.4565 39.0984 80.8509 38.7027C81.2453 38.307 81.7135 37.9931 82.2288 37.779C82.7441 37.5648 83.2964 37.4546 83.8542 37.4546Z" fill="#FAFAFA"/>
<path d="M99.5763 37.5293C100.703 37.5293 101.783 37.9783 102.58 38.7774C103.376 39.5765 103.824 40.6604 103.824 41.7906V47.5471H95.3291V41.7906C95.3291 40.6604 95.7766 39.5765 96.5731 38.7774C97.3696 37.9783 98.4499 37.5293 99.5763 37.5293Z" fill="#FAFAFA"/>
<path d="M115.299 37.6041C116.425 37.6041 117.505 38.0531 118.302 38.8522C119.098 39.6514 119.546 40.7353 119.546 41.8654V47.6219H111.051V41.8654C111.051 40.7353 111.499 39.6514 112.295 38.8522C113.092 38.0531 114.172 37.6041 115.299 37.6041Z" fill="#FAFAFA"/>
<path d="M121.557 63.097C122.684 63.097 123.764 63.546 124.561 64.3451C125.357 65.1443 125.805 66.2282 125.805 67.3583V73.1148H117.31V67.3583C117.31 66.2282 117.758 65.1443 118.554 64.3451C119.351 63.546 120.431 63.097 121.557 63.097Z" fill="#FAFAFA"/>
<path d="M79.5324 63.097C80.6588 63.097 81.7391 63.546 82.5356 64.3451C83.3321 65.1443 83.7796 66.2282 83.7796 67.3583V73.1148H75.2852V67.3583C75.2852 66.7987 75.395 66.2446 75.6085 65.7276C75.8219 65.2106 76.1348 64.7408 76.5291 64.3451C76.9235 63.9494 77.3917 63.6356 77.907 63.4214C78.4223 63.2073 78.9746 63.097 79.5324 63.097Z" fill="#FAFAFA"/>
<path d="M148.296 59.0365L134.151 52.7567C134.075 52.723 133.993 52.7056 133.91 52.7056H66.4945C66.4175 52.7056 66.3413 52.7205 66.27 52.7496L50.8726 59.0294C50.7445 59.0816 50.6385 59.1769 50.5728 59.2989C50.507 59.4209 50.4855 59.5621 50.5121 59.6982C50.5386 59.8343 50.6114 59.957 50.7182 60.0451C50.8249 60.1333 50.9588 60.1815 51.0971 60.1815H55.092V80.8152H54.6449V82.9084H144.507V80.8152H143.762V60.1815H148.055C148.192 60.1815 148.324 60.1344 148.431 60.048C148.537 59.9616 148.61 59.8413 148.638 59.7071C148.667 59.5729 148.648 59.4331 148.586 59.311C148.523 59.1889 148.421 59.092 148.296 59.0365ZM142.57 80.8152H56.2842V60.1815H142.57V80.8152Z" fill="#CACACA"/>
<path d="M89.1445 46.65H78.2656V48.4443H89.1445V46.65Z" fill="#CACACA"/>
<path d="M105.09 46.65H94.2114V48.4443H105.09V46.65Z" fill="#CACACA"/>
<path d="M121.036 46.65H110.157V48.4443H121.036V46.65Z" fill="#CACACA"/>
<path d="M126.997 72.5168H116.118V74.3111H126.997V72.5168Z" fill="#CACACA"/>
<path d="M84.8227 72.5168H73.9438V74.3111H84.8227V72.5168Z" fill="#CACACA"/>
<path d="M165.817 83H0.182618C0.134185 83 0.0877351 82.9807 0.0534875 82.9463C0.0192399 82.912 0 82.8654 0 82.8168C0 82.7682 0.0192399 82.7216 0.0534875 82.6872C0.0877351 82.6529 0.134185 82.6335 0.182618 82.6335H165.817C165.866 82.6335 165.912 82.6529 165.947 82.6872C165.981 82.7216 166 82.7682 166 82.8168C166 82.8654 165.981 82.912 165.947 82.9463C165.912 82.9807 165.866 83 165.817 83Z" fill="#3F3D56"/>
<path d="M124.156 31.9138C124.156 32.0311 124.154 32.1502 124.153 32.2674C124.151 32.4085 124.147 32.5478 124.142 32.6888C124.136 32.8116 124.131 32.9325 124.123 33.0534C124.101 33.4584 124.067 33.8615 124.019 34.2664C124.008 34.369 123.995 34.4698 123.981 34.5724C123.97 34.6512 123.959 34.7318 123.946 34.8124C123.933 34.9022 123.921 34.992 123.906 35.0817C123.877 35.2723 123.844 35.4628 123.807 35.6534C123.789 35.7487 123.771 35.8439 123.751 35.9392C123.712 36.1279 123.67 36.3185 123.627 36.5072C123.623 36.5219 123.619 36.5383 123.616 36.553C123.594 36.6465 123.572 36.7381 123.548 36.8315C123.541 36.859 123.535 36.8847 123.526 36.9121C123.51 36.9818 123.491 37.0514 123.473 37.121C123.448 37.2181 123.422 37.3134 123.395 37.4105C123.351 37.5607 123.307 37.7092 123.261 37.8594C123.256 37.875 123.251 37.8909 123.247 37.907C123.159 38.191 123.066 38.4714 122.964 38.7499C122.911 38.8964 122.854 39.0448 122.798 39.1914C122.741 39.338 122.682 39.4846 122.622 39.6293C122.564 39.7704 122.503 39.9115 122.443 40.0507C122.429 40.0837 122.414 40.1167 122.398 40.1497C122.334 40.2944 122.268 40.4355 122.2 40.5766C122.199 40.5784 122.198 40.5821 122.197 40.5839C122.144 40.6975 122.087 40.8111 122.03 40.9229C122.03 40.9263 122.029 40.9295 122.027 40.932C121.972 41.042 121.915 41.1519 121.857 41.26L121.764 41.4377L121.753 41.4579C121.636 41.6759 121.516 41.8921 121.388 42.1065C121.36 42.1541 121.333 42.2018 121.306 42.2476C121.278 42.2952 121.249 42.3428 121.22 42.3886C121.201 42.4216 121.181 42.4546 121.159 42.4876C121.121 42.5499 121.083 42.614 121.043 42.6763C121.035 42.6891 121.026 42.702 121.019 42.7148C120.949 42.8229 120.88 42.9292 120.811 43.0373C120.725 43.1673 120.637 43.2956 120.548 43.4239L118.564 46.6083L118.479 46.5368L118.455 46.5148H118.453L118.374 46.4489L118.159 46.2656C118.093 46.3298 118.029 46.3939 117.964 46.4562C117.938 46.4818 117.911 46.5057 117.885 46.5313C117.865 46.5496 117.847 46.5679 117.827 46.5863C114.398 49.9456 109.837 51.891 105.047 52.0371H105.042C101.415 52.137 97.8258 51.2871 94.6268 49.571C94.5556 49.5343 94.4862 49.4977 94.4168 49.4555C94.0004 49.2283 93.5932 48.9883 93.1932 48.7318C93.1914 48.7299 93.1896 48.73 93.1877 48.7281C92.7239 48.3983 92.271 48.0465 91.8291 47.6728C89.4582 45.6677 87.5825 43.1389 86.349 40.2845C85.1155 37.4302 84.5579 34.328 84.7198 31.2212C84.7252 31.0984 84.7326 30.9775 84.7416 30.8547C84.7709 30.4113 84.8159 29.9698 84.8768 29.53C84.8932 29.4073 84.9115 29.2845 84.9298 29.1636H123.97C124.047 29.7242 124.1 30.288 124.129 30.8547C124.147 31.2084 124.156 31.5602 124.156 31.9138Z" fill="#F0F0F0"/>
<path d="M123.97 29.1636C123.267 24.4741 120.91 20.1933 117.328 17.0994C113.746 14.0055 109.176 12.3038 104.45 12.3038C99.7233 12.3038 95.1536 14.0055 91.5715 17.0994C87.9894 20.1933 85.6327 24.4741 84.9298 29.1636C84.9116 29.2845 84.8933 29.4073 84.8768 29.5301C84.8166 29.9698 84.7716 30.4114 84.7417 30.8548H124.129C124.1 30.2886 124.047 29.7249 123.97 29.1636Z" fill="#FFC000"/>
<path d="M105.728 49.5704H94.4175V40.4923C94.6262 36.3436 98.1604 36.0086 101.481 36.2312C102.039 36.2312 102.591 36.3414 103.107 36.5555C103.622 36.7696 104.09 37.0835 104.484 37.4792C104.879 37.8749 105.192 38.3446 105.405 38.8616C105.619 39.3786 105.728 39.9327 105.728 40.4923V49.5704Z" fill="#FFC000"/>
<path d="M94.4168 43.1161V43.1179C94.4168 43.1197 94.4186 43.1197 94.4204 43.1197L94.4168 43.1161ZM89.8678 29.1636C89.8605 29.2094 89.8513 29.2552 89.844 29.301C89.8513 29.2552 89.8604 29.2094 89.8696 29.1636H89.8678ZM89.6413 30.8548C89.6358 30.9244 89.6303 30.994 89.6267 31.0636C89.6303 30.994 89.6358 30.9244 89.6431 30.8548C89.6428 30.8419 89.6434 30.8291 89.645 30.8163C89.6431 30.8291 89.6431 30.8419 89.6413 30.8548ZM94.4168 43.1179C94.4168 43.1197 94.4186 43.1197 94.4204 43.1197L94.4168 43.1161V43.1179ZM89.8678 29.1636C89.8605 29.2094 89.8513 29.2552 89.844 29.301C89.8513 29.2552 89.8604 29.2094 89.8696 29.1636H89.8678ZM89.6267 31.0636C89.6303 30.994 89.6358 30.9244 89.6431 30.8548C89.6428 30.8419 89.6434 30.8291 89.645 30.8163C89.6431 30.8291 89.6431 30.8419 89.6413 30.8548C89.6358 30.9244 89.6303 30.994 89.6267 31.0636ZM146.045 64.7693C146.009 64.7316 145.971 64.6961 145.932 64.663L145.93 64.6612L136.886 57.0043L136.653 56.8065L135.763 56.0534L135.541 55.8647L134.273 54.791L133.926 54.4978L133.209 53.8895L132.841 53.5781L129.379 50.6483L127.394 48.9682L127.127 48.7428L121.278 43.7903C121.368 43.662 121.455 43.5338 121.541 43.4037C121.61 43.2956 121.68 43.1893 121.749 43.0812C121.757 43.0684 121.766 43.0556 121.773 43.0427C121.813 42.9804 121.851 42.9163 121.89 42.854C121.912 42.821 121.932 42.7881 121.95 42.7551C121.979 42.7093 122.009 42.6616 122.036 42.614C122.063 42.5682 122.091 42.5206 122.118 42.4729C122.246 42.2586 122.366 42.0424 122.483 41.8243L122.494 41.8042L122.587 41.6264C122.646 41.5183 122.703 41.4084 122.757 41.2985C122.76 41.296 122.761 41.2927 122.761 41.2893C122.818 41.1776 122.874 41.064 122.927 40.9504C122.929 40.9485 122.929 40.9449 122.931 40.943C122.998 40.8019 123.064 40.6609 123.128 40.5161C123.144 40.4831 123.159 40.4502 123.174 40.4172C123.234 40.2779 123.294 40.1369 123.353 39.9958C123.413 39.851 123.471 39.7044 123.528 39.5579C123.585 39.4113 123.641 39.2629 123.694 39.1163C123.795 38.836 123.889 38.555 123.977 38.2735C123.981 38.2573 123.986 38.2414 123.992 38.2258C124.037 38.0756 124.081 37.9272 124.125 37.7769C124.153 37.6798 124.178 37.5846 124.204 37.4874C124.222 37.4178 124.24 37.3482 124.257 37.2786C124.266 37.2511 124.271 37.2254 124.278 37.198C124.302 37.1045 124.324 37.0129 124.346 36.9195C124.35 36.9048 124.353 36.8883 124.357 36.8737C124.401 36.6849 124.443 36.4944 124.481 36.3057C124.501 36.2104 124.52 36.1151 124.538 36.0198C124.573 35.8293 124.607 35.6387 124.636 35.4482C124.651 35.3584 124.664 35.2686 124.677 35.1788C124.689 35.0982 124.7 35.0176 124.711 34.9388C124.726 34.8362 124.739 34.7354 124.75 34.6328C124.797 34.2279 124.832 33.8248 124.854 33.4199C124.861 33.299 124.867 33.178 124.872 33.0553C124.877 32.9142 124.881 32.775 124.883 32.6339C124.885 32.5166 124.887 32.3975 124.887 32.2802C124.887 31.9266 124.877 31.5748 124.859 31.2212C124.83 30.6551 124.777 30.0913 124.7 29.5301C124.046 24.7323 121.693 20.331 118.071 17.1307C114.448 13.9304 109.799 12.1448 104.973 12.1003C100.147 12.0559 95.4656 13.7555 91.7854 16.8885C88.1052 20.0215 85.6717 24.3787 84.9297 29.1636C84.9115 29.2845 84.8932 29.4073 84.8768 29.5301C84.8165 29.9698 84.7715 30.4114 84.7416 30.8548C84.7326 30.9775 84.7252 31.0985 84.7198 31.2212C84.5579 34.328 85.1155 37.4302 86.349 40.2846C87.5825 43.1389 89.4582 45.6677 91.8291 47.6728C92.271 48.0466 92.7239 48.3984 93.1877 48.7282C93.1896 48.73 93.1914 48.73 93.1932 48.7318C93.3485 48.8418 93.5037 48.9499 93.6607 49.0561C93.9109 49.221 94.1629 49.3823 94.4167 49.5362C94.4369 49.5472 94.457 49.56 94.477 49.571C94.6962 49.7029 94.9172 49.8293 95.1381 49.9521H95.1399C95.9625 50.4058 96.8163 50.8002 97.6948 51.1321C100.272 52.105 103.021 52.5378 105.772 52.4036H105.777C108.988 52.2478 112.114 51.3196 114.892 49.6974C115.296 49.4629 115.694 49.2119 116.083 48.9444C116.179 48.8784 116.278 48.8106 116.373 48.7428C116.49 48.6604 116.607 48.5743 116.724 48.4881C116.725 48.4881 116.725 48.4863 116.727 48.4863C116.736 48.479 116.745 48.4723 116.755 48.4662C116.833 48.4057 116.913 48.3452 116.99 48.2866C117.01 48.2719 117.03 48.2573 117.05 48.2408C117.056 48.2371 117.061 48.2328 117.065 48.228C117.111 48.195 117.155 48.1583 117.2 48.1235C117.246 48.0887 117.29 48.0521 117.335 48.0154C117.343 48.0105 117.35 48.005 117.357 47.9989C117.408 47.9568 117.46 47.9165 117.511 47.8743C117.564 47.8322 117.615 47.7882 117.664 47.7461C117.715 47.7039 117.765 47.6618 117.816 47.6178C117.859 47.5812 117.905 47.5427 117.949 47.5024C117.964 47.4914 117.976 47.4786 117.991 47.4657C117.997 47.4603 118.003 47.4554 118.009 47.4511C118.069 47.3998 118.128 47.3466 118.186 47.2935C118.201 47.2807 118.214 47.2679 118.228 47.255C118.318 47.1744 118.407 47.0938 118.495 47.0095C118.515 46.9912 118.537 46.971 118.557 46.9527C118.577 46.9344 118.595 46.9161 118.616 46.8977C118.641 46.8721 118.668 46.8483 118.694 46.8226C118.76 46.7603 118.824 46.6962 118.889 46.6321L119.105 46.8153L119.183 46.8813H119.185L119.209 46.9033L119.295 46.9747L120.57 48.0557L120.597 48.0795L120.619 48.096L120.763 48.2188L121.052 48.4643L121.34 48.708L121.382 48.7428L122.724 49.8788L122.911 50.0364L124.205 51.1321L130.908 56.8065L131.141 57.0044L140.314 64.7694L142.666 66.761L143.541 67.5012C143.727 67.6588 143.942 67.7782 144.173 67.8525C144.405 67.9267 144.649 67.9545 144.891 67.9341C145.134 67.9136 145.37 67.8455 145.586 67.7335C145.802 67.6215 145.994 67.4678 146.151 67.2813C146.282 67.1266 146.386 66.9506 146.459 66.761C146.592 66.4247 146.623 66.0568 146.55 65.7028C146.476 65.3488 146.3 65.0242 146.045 64.7693ZM93.1457 22.2964C94.9778 20.1182 97.3867 18.5044 100.094 17.6415C102.802 16.7785 105.697 16.7017 108.446 17.4199C111.195 18.138 113.686 19.6219 115.63 21.6999C117.574 23.778 118.893 26.3655 119.434 29.1636C119.457 29.2864 119.479 29.4073 119.499 29.5301C119.574 29.968 119.629 30.4114 119.662 30.8548C119.671 30.9775 119.68 31.0984 119.686 31.2212C119.702 31.496 119.709 31.7727 119.709 32.0475C119.71 33.7147 119.435 35.3704 118.895 36.9469V36.9488C118.291 38.7164 117.364 40.3556 116.161 41.7822C116.136 41.8115 116.11 41.8427 116.083 41.872C115.842 42.1578 115.588 42.4326 115.327 42.6947C115.325 42.6965 115.323 42.7001 115.321 42.702C115.232 42.7918 115.14 42.8834 115.049 42.9677C114.863 43.149 114.673 43.3213 114.479 43.4862C114.189 43.7409 113.891 43.9797 113.586 44.2026C113.484 44.2777 113.382 44.351 113.278 44.4243C113.175 44.4976 113.071 44.5672 112.967 44.6368C112.759 44.7761 112.547 44.9098 112.333 45.0362C112.228 45.1003 112.118 45.1627 112.01 45.2231C111.902 45.2854 111.793 45.344 111.683 45.4009C111.574 45.4595 111.464 45.5163 111.353 45.5712C111.132 45.683 110.909 45.7874 110.683 45.8845C110.569 45.9359 110.456 45.9835 110.343 46.0275C110.272 46.0568 110.202 46.0861 110.131 46.1117C110.103 46.1247 110.075 46.1357 110.045 46.1447C110.007 46.1612 109.969 46.1759 109.93 46.1887C109.918 46.1944 109.905 46.1993 109.892 46.2034C109.813 46.2345 109.737 46.262 109.656 46.2895C109.541 46.3316 109.426 46.3701 109.309 46.4068C109.192 46.4452 109.077 46.4819 108.96 46.5149C108.844 46.5515 108.725 46.5845 108.608 46.6156C108.489 46.6486 108.372 46.6798 108.254 46.7072C108.128 46.7402 108.002 46.7695 107.874 46.797C107.762 46.8227 107.653 46.8446 107.542 46.8648C107.437 46.8868 107.332 46.9051 107.227 46.9234C107.081 46.9491 106.935 46.9729 106.787 46.9931C106.707 47.0059 106.628 47.0169 106.548 47.0242C106.513 47.0297 106.481 47.0334 106.448 47.037C106.345 47.0517 106.243 47.0627 106.143 47.0718C106.115 47.0737 106.09 47.0773 106.064 47.0792C105.953 47.0902 105.84 47.0994 105.728 47.1085C105.489 47.125 105.252 47.136 105.012 47.1415C104.892 47.1433 104.769 47.1451 104.649 47.1451C104.528 47.1451 104.408 47.1433 104.287 47.1396C104.287 47.1396 104.287 47.1415 104.285 47.1396C104.284 47.1415 104.284 47.1415 104.282 47.1396C104.282 47.1399 104.281 47.1401 104.281 47.1402C104.281 47.1404 104.28 47.1404 104.28 47.1404C104.28 47.1404 104.279 47.1404 104.279 47.1402C104.279 47.1401 104.278 47.1399 104.278 47.1396C104.272 47.1415 104.266 47.1415 104.26 47.1396C104.174 47.1396 104.088 47.136 104.004 47.1305C103.942 47.1286 103.878 47.1268 103.814 47.1213C103.729 47.1176 103.643 47.1122 103.557 47.1048C103.529 47.1048 103.502 47.1012 103.475 47.0993C103.462 47.099 103.449 47.0978 103.436 47.0957C103.349 47.0884 103.259 47.081 103.171 47.0718C103.128 47.0682 103.082 47.0645 103.038 47.059C102.905 47.0444 102.772 47.0279 102.64 47.0096C102.49 46.9912 102.341 46.9692 102.193 46.9418C102.123 46.9326 102.056 46.9198 101.988 46.907C101.899 46.8923 101.809 46.8758 101.72 46.8575C101.627 46.8392 101.533 46.8208 101.44 46.7988C101.365 46.7823 101.289 46.7659 101.214 46.7476C101.177 46.7402 101.141 46.7311 101.106 46.7219C100.914 46.6761 100.724 46.6266 100.536 46.5717C100.418 46.5387 100.299 46.5039 100.182 46.4672C100.021 46.4178 99.8624 46.3646 99.7036 46.3078C99.6415 46.2877 99.5812 46.2657 99.5191 46.2419C99.457 46.2217 99.3967 46.1979 99.3347 46.1741C99.2781 46.1539 99.2214 46.1319 99.1666 46.1099C99.0753 46.0751 98.9858 46.0385 98.8964 46.0018C98.7119 45.9267 98.5311 45.8479 98.3503 45.7637C98.2481 45.7142 98.1458 45.6665 98.0454 45.6171C97.6491 45.4247 97.2589 45.2109 96.8748 44.9758C96.7798 44.919 96.6849 44.8585 96.5899 44.7981C96.4712 44.7248 96.3562 44.6478 96.2411 44.5709C96.1772 44.5269 96.1151 44.4848 96.053 44.4408C95.938 44.3602 95.8247 44.2777 95.7133 44.1953C95.6549 44.1531 95.5964 44.1091 95.5398 44.0652C95.3371 43.9112 95.1381 43.75 94.9427 43.5851C94.8496 43.5063 94.7564 43.4257 94.6651 43.3433C94.6268 43.3103 94.5884 43.2755 94.55 43.2407C94.5063 43.2004 94.4624 43.1619 94.4204 43.1197L94.4168 43.1161C94.3529 43.0592 94.2889 42.9988 94.2268 42.9383C94.13 42.8467 94.0351 42.7533 93.9438 42.658C93.8488 42.5646 93.7575 42.4675 93.668 42.3722C93.5767 42.2769 93.4891 42.1798 93.4032 42.0808C93.3156 41.9838 93.2297 41.8848 93.1457 41.7841C93.0635 41.6888 92.9832 41.5898 92.9065 41.4927C92.7202 41.2619 92.5425 41.0267 92.3732 40.7873C92.2947 40.6774 92.2199 40.5674 92.1468 40.4557C92.0683 40.3421 91.9934 40.2267 91.9222 40.1112C91.8473 39.9958 91.7761 39.8785 91.7067 39.7594C91.7049 39.7554 91.7024 39.7516 91.6994 39.7484C91.5624 39.5157 91.4309 39.2812 91.3086 39.043C91.1826 38.8012 91.0639 38.5569 90.9525 38.3101C90.8959 38.1874 90.8411 38.0628 90.79 37.9382C90.684 37.6872 90.5854 37.4362 90.4941 37.1815C90.4484 37.0587 90.4064 36.9359 90.3644 36.8113C90.3631 36.8031 90.3606 36.7951 90.3571 36.7876C90.2731 36.5347 90.1964 36.28 90.1289 36.0235C90.127 36.0198 90.127 36.0162 90.1252 36.0125C90.0905 35.8861 90.0577 35.7597 90.0284 35.6314C89.9992 35.5196 89.9737 35.4079 89.9499 35.2943C89.9225 35.1678 89.8951 35.0414 89.8714 34.9132C89.8586 34.8472 89.8458 34.7813 89.8349 34.7153C89.8239 34.6603 89.8147 34.6035 89.8056 34.5486C89.7965 34.4936 89.7874 34.4368 89.7782 34.38C89.7599 34.2682 89.7435 34.1565 89.7289 34.0447C89.7106 33.9128 89.6961 33.7809 89.6814 33.6471C89.665 33.4877 89.6504 33.3283 89.6376 33.1671C89.6285 33.0589 89.623 32.949 89.6176 32.8391C89.612 32.7383 89.6066 32.6376 89.6048 32.5368C89.6029 32.5314 89.6029 32.5256 89.6048 32.5203C89.6045 32.5201 89.6043 32.5198 89.6042 32.5195C89.604 32.5191 89.604 32.5188 89.604 32.5185C89.604 32.5181 89.604 32.5178 89.6042 32.5175C89.6043 32.5171 89.6045 32.5169 89.6048 32.5166C89.6029 32.5148 89.6029 32.5148 89.6048 32.513C89.6045 32.5127 89.6043 32.5124 89.6042 32.5121C89.604 32.5118 89.604 32.5115 89.604 32.5111C89.604 32.5108 89.604 32.5104 89.6042 32.5101C89.6043 32.5098 89.6045 32.5095 89.6048 32.5093C89.6029 32.469 89.6011 32.4287 89.6011 32.3884C89.5975 32.2693 89.5956 32.1502 89.5956 32.0311C89.5956 31.923 89.5975 31.8167 89.5993 31.7086C89.6029 31.5584 89.6084 31.4081 89.6157 31.2579C89.6157 31.2249 89.6193 31.1938 89.6212 31.1608C89.623 31.1278 89.6249 31.0966 89.6267 31.0636C89.6303 30.994 89.6358 30.9244 89.6431 30.8548C89.6428 30.8419 89.6434 30.8291 89.645 30.8163C89.6504 30.7375 89.6577 30.6587 89.665 30.58C89.6796 30.4224 89.6979 30.263 89.718 30.1054C89.7289 30.0266 89.7381 29.9478 89.7509 29.8691C89.7582 29.8141 89.7673 29.7573 89.7764 29.7005C89.7837 29.6437 89.7929 29.5869 89.8038 29.5301C89.8166 29.455 89.8294 29.378 89.844 29.301C89.8513 29.2552 89.8604 29.2094 89.8696 29.1636C89.9043 28.9804 89.9426 28.7972 89.9846 28.614C90.0266 28.4289 90.0741 28.2457 90.1252 28.0625C90.1745 27.8774 90.2293 27.6924 90.2877 27.5073C90.3151 27.4139 90.3444 27.3223 90.3772 27.2306C90.4375 27.0456 90.5014 26.8624 90.5726 26.681C90.6055 26.5912 90.6402 26.4996 90.6785 26.4098C90.7516 26.2284 90.8283 26.047 90.9068 25.8693C90.947 25.7795 90.9872 25.6897 91.031 25.6C91.1132 25.4222 91.199 25.2445 91.2921 25.0704C91.3816 24.8927 91.4784 24.7187 91.577 24.5464C91.6757 24.3742 91.7779 24.202 91.8857 24.0316C91.935 23.9473 91.9897 23.8612 92.0463 23.7787C92.1559 23.6102 92.271 23.4416 92.3879 23.2767C92.6235 22.9432 92.8773 22.6152 93.1457 22.2964ZM89.6413 30.8548C89.6358 30.9244 89.6303 30.994 89.6267 31.0636C89.6303 30.994 89.6358 30.9244 89.6431 30.8548C89.6428 30.8419 89.6434 30.8291 89.645 30.8163C89.6431 30.8291 89.6431 30.8419 89.6413 30.8548ZM89.8678 29.1636C89.8605 29.2094 89.8513 29.2552 89.844 29.301C89.8513 29.2552 89.8604 29.2094 89.8696 29.1636H89.8678ZM94.4168 43.1161V43.1179C94.4168 43.1197 94.4186 43.1197 94.4204 43.1197L94.4168 43.1161Z" fill="#3F3D56"/>
<path opacity="0.3" d="M94.9427 43.5849C92.0542 41.1392 90.188 37.6932 89.7146 33.9309C89.2413 30.1687 90.1955 26.3654 92.3877 23.2764C92.0998 23.5673 91.8215 23.8719 91.5527 24.1903C90.2776 25.7065 89.3126 27.4599 88.7128 29.3503C88.113 31.2406 87.8902 33.231 88.0572 35.2078C88.2241 37.1846 88.7774 39.109 89.6856 40.8712C90.5938 42.6334 91.8391 44.1989 93.3503 45.4783C96.4023 48.0621 100.352 49.3237 104.331 48.9854C108.311 48.6472 111.993 46.7369 114.568 43.6748C114.836 43.356 115.089 43.0295 115.325 42.6953C112.659 45.3831 109.083 46.9666 105.307 47.1314C101.531 47.2962 97.8314 46.0302 94.9427 43.5849Z" fill="black"/>
</g>
<defs>
<clipPath id="clip0_52_2542">
<rect width="166" height="83" fill="white"/>
</clipPath>
</defs>
</svg>
