<svg width="21" height="19" viewBox="0 0 21 19" fill="none" xmlns="http://www.w3.org/2000/svg">
<path d="M5.37969 0.599976C5.30969 3.21598 3.32969 5.19598 0.783691 5.19598V6.60998C4.24969 6.68098 6.93569 3.99398 6.79369 0.599976H5.37969ZM0.783691 2.22598V3.64098C2.55169 3.56998 3.82369 2.29698 3.82369 0.599976H2.41169C2.3479 1.00849 2.15592 1.38615 1.86347 1.67842C1.57102 1.97069 1.19324 2.16244 0.784691 2.22598H0.783691ZM20.8157 5.19598C18.2697 5.19598 16.2897 3.21598 16.2197 0.599976H14.8047C14.6637 3.99398 17.3507 6.68098 20.8147 6.60998V5.19598H20.8157ZM20.8157 3.64098V2.22598C20.4071 2.16244 20.0294 1.97069 19.7369 1.67842C19.4445 1.38615 19.2525 1.00849 19.1887 0.599976H17.7747C17.7747 2.29698 19.0477 3.56998 20.8147 3.63998L20.8157 3.64098ZM17.7997 18.6V10.6H20.7997L10.7997 1.59998L0.799691 10.6H3.79969V18.6H17.7997Z" fill="#FFC000"/>
</svg>
