<svg width="21" height="20" viewBox="0 0 21 20" fill="none" xmlns="http://www.w3.org/2000/svg">
<path d="M16.6499 10C16.6499 9.83424 16.7157 9.67527 16.833 9.55806C16.9502 9.44085 17.1091 9.375 17.2749 9.375C17.4407 9.375 17.5996 9.44085 17.7168 9.55806C17.8341 9.67527 17.8999 9.83424 17.8999 10V16.875C17.8999 17.0408 17.8341 17.1997 17.7168 17.3169C17.5996 17.4342 17.4407 17.5 17.2749 17.5H3.5249C3.35914 17.5 3.20017 17.4342 3.08296 17.3169C2.96575 17.1997 2.8999 17.0408 2.8999 16.875V3.125C2.8999 2.95924 2.96575 2.80027 3.08296 2.68306C3.20017 2.56585 3.35914 2.5 3.5249 2.5H10.3999C10.5657 2.5 10.7246 2.56585 10.8418 2.68306C10.9591 2.80027 11.0249 2.95924 11.0249 3.125C11.0249 3.29076 10.9591 3.44973 10.8418 3.56694C10.7246 3.68415 10.5657 3.75 10.3999 3.75H4.1499V16.25H16.6499V10Z" fill="black"/>
<path d="M9.57863 10.8249L10.6099 10.6774L16.9449 4.3437C17.0046 4.28604 17.0522 4.21708 17.0849 4.14082C17.1177 4.06457 17.1349 3.98256 17.1357 3.89957C17.1364 3.81659 17.1206 3.73429 17.0891 3.65747C17.0577 3.58066 17.0113 3.51088 16.9526 3.4522C16.8939 3.39352 16.8242 3.34711 16.7474 3.31568C16.6705 3.28426 16.5882 3.26844 16.5053 3.26916C16.4223 3.26989 16.3403 3.28713 16.264 3.31988C16.1878 3.35264 16.1188 3.40025 16.0611 3.45995L9.72488 9.7937L9.57738 10.8249H9.57863ZM17.8286 2.57495C18.0029 2.74907 18.1411 2.95582 18.2354 3.18339C18.3297 3.41095 18.3782 3.65487 18.3782 3.9012C18.3782 4.14753 18.3297 4.39144 18.2354 4.61901C18.1411 4.84657 18.0029 5.05332 17.8286 5.22745L11.3474 11.7087C11.2518 11.8046 11.1277 11.8669 10.9936 11.8862L8.93113 12.1812C8.83501 12.195 8.737 12.1862 8.64486 12.1555C8.55273 12.1249 8.46901 12.0731 8.40034 12.0045C8.33168 11.9358 8.27996 11.8521 8.24929 11.76C8.21861 11.6678 8.20983 11.5698 8.22363 11.4737L8.51863 9.4112C8.53757 9.27732 8.59942 9.15319 8.69488 9.05745L15.1774 2.5762C15.529 2.22469 16.0058 2.02722 16.503 2.02722C17.0002 2.02722 17.477 2.22469 17.8286 2.5762V2.57495Z" fill="black"/>
</svg>
