<svg width="18" height="10" viewBox="0 0 18 10" fill="none" xmlns="http://www.w3.org/2000/svg">
<g opacity="0.2">
<path d="M14 2H3C2.44772 2 2 2.44772 2 3V9C2 9.55228 2.44772 10 3 10H14C14.5523 10 15 9.55228 15 9V3C15 2.44772 14.5523 2 14 2Z" fill="#FAFAFA"/>
<path d="M17 3.5H16C15.7239 3.5 15.5 3.72386 15.5 4V8C15.5 8.27614 15.7239 8.5 16 8.5H17C17.2761 8.5 17.5 8.27614 17.5 8V4C17.5 3.72386 17.2761 3.5 17 3.5Z" fill="#FAFAFA"/>
</g>
<path d="M16.5 2.5H15.5C15.2239 2.5 15 2.72386 15 3V7C15 7.27614 15.2239 7.5 15.5 7.5H16.5C16.7761 7.5 17 7.27614 17 7V3C17 2.72386 16.7761 2.5 16.5 2.5Z" fill="#FAFAFA"/>
<path d="M3 2.5H5.5V7.5H3V2.5ZM6.25 2.5H8.75V7.5H6.25V2.5ZM9.5 2.5H12V7.5H9.5V2.5Z" fill="#FAFAFA"/>
<path fill-rule="evenodd" clip-rule="evenodd" d="M13 0.5H2C1.60218 0.5 1.22064 0.658035 0.93934 0.93934C0.658035 1.22064 0.5 1.60218 0.5 2V8C0.5 8.39782 0.658035 8.77936 0.93934 9.06066C1.22064 9.34196 1.60218 9.5 2 9.5H13C13.3978 9.5 13.7794 9.34196 14.0607 9.06066C14.342 8.77936 14.5 8.39782 14.5 8V2C14.5 1.60218 14.342 1.22064 14.0607 0.93934C13.7794 0.658035 13.3978 0.5 13 0.5ZM1.5 2C1.5 1.86739 1.55268 1.74021 1.64645 1.64645C1.74021 1.55268 1.86739 1.5 2 1.5H13C13.1326 1.5 13.2598 1.55268 13.3536 1.64645C13.4473 1.74021 13.5 1.86739 13.5 2V8C13.5 8.13261 13.4473 8.25979 13.3536 8.35355C13.2598 8.44732 13.1326 8.5 13 8.5H2C1.86739 8.5 1.74021 8.44732 1.64645 8.35355C1.55268 8.25979 1.5 8.13261 1.5 8V2Z" fill="#FAFAFA"/>
</svg>
