<svg width="23" height="20" viewBox="0 0 23 20" fill="none" xmlns="http://www.w3.org/2000/svg">
<path d="M11.709 0.160103C11.5759 0.0563472 11.412 0 11.2433 0C11.0745 0 10.9106 0.0563472 10.7775 0.160103L0 8.56385L0.93225 9.74285L2.25 8.71535V17.9996C2.25079 18.3972 2.40908 18.7783 2.69022 19.0594C2.97135 19.3405 3.35242 19.4988 3.75 19.4996H18.75C19.1476 19.4988 19.5287 19.3405 19.8098 19.0594C20.0909 18.7783 20.2492 18.3972 20.25 17.9996V8.7221L21.5677 9.7496L22.5 8.5706L11.709 0.160103ZM12.75 17.9996H9.75V11.9996H12.75V17.9996ZM14.25 17.9996V11.9996C14.2496 11.6019 14.0914 11.2206 13.8102 10.9394C13.529 10.6582 13.1477 10.5 12.75 10.4996H9.75C9.3523 10.5 8.971 10.6582 8.68978 10.9394C8.40856 11.2206 8.2504 11.6019 8.25 11.9996V17.9996H3.75V7.5461L11.25 1.7036L18.75 7.5536V17.9996H14.25Z" fill="black"/>
</svg>
